<svg style="vertical-align: 0;" xmlns="http://www.w3.org/2000/svg" width="1.507ex" height="1.55ex" viewBox="0 -685 666 685"><g stroke="currentColor" fill="currentColor" stroke-width="0" transform="scale(1,-1)"><g data-latex="\mathbb{Z}"><g data-latex="\mathbb{Z}" data-mjx-texclass="ORD"><g data-latex="Z"><path data-c="2124" d="M569 685L117 685C103 685 93 684 88 681C83 670 79 661 78 653C73 604 68 554 62 506C62 491 69 483 83 483C94 483 101 489 104 501C119 594 217 642 332 642L405 642L37 42C31 31 28 25 28 22C28 4 43 0 66 0L572 0C601 0 607 5 609 31L636 226C636 241 629 248 615 248C610 248 605 246 602 243C596 231 593 222 592 215C571 117 480 43 362 43L228 43L596 643C602 654 605 660 605 663C605 682 593 685 569 685M156 642C144 635 131 625 116 612L119 642M455 642L546 642L179 43L87 43M517 43C538 56 558 73 575 92L568 43Z"/></g></g></g></g></svg>
