<svg style="vertical-align: 0;" xmlns="http://www.w3.org/2000/svg" width="1.633ex" height="1.55ex" viewBox="0 -685 722 685"><g stroke="currentColor" fill="currentColor" stroke-width="0" transform="scale(1,-1)"><g data-latex="\mathbb{R}"><g data-latex="\mathbb{R}" data-mjx-texclass="ORD"><g data-latex="R"><path data-c="211D" d="M104 590L104 95C104 45 99 43 47 43C26 43 16 36 16 22C16 4 31 0 54 0L324 0C349 0 361 7 361 22C361 36 350 43 329 43C277 43 273 45 273 95L273 310L302 310L450 83C475 43 490 20 494 14C500 5 512 0 530 0L666 0C691 0 703 7 703 22C703 33 697 40 685 42C660 47 625 82 579 146C534 208 494 267 459 322C573 344 630 402 630 496C630 563 600 613 540 644C488 671 429 685 364 685L54 685C29 685 16 678 16 663C16 649 26 642 47 642C99 642 104 640 104 590M535 597C570 576 587 542 587 496C587 427 547 385 468 368C485 396 494 438 494 495C494 552 483 596 462 629C487 622 512 612 535 597M452 495C452 433 441 394 419 378C397 362 348 353 273 353L273 593C273 630 287 642 330 642C425 642 452 595 452 495M413 316C496 184 561 93 610 43L525 43L352 311C357 312 361 312 364 312C378 312 394 313 413 316M140 642L240 642C234 631 231 616 231 596L231 93C231 72 233 55 237 43L140 43C144 55 146 72 146 93L146 592C146 613 144 630 140 642Z"/></g></g></g></g></svg>
