<svg style="vertical-align: -0.287ex;" xmlns="http://www.w3.org/2000/svg" width="1.76ex" height="1.706ex" viewBox="0 -627 778 754"><g stroke="currentColor" fill="currentColor" stroke-width="0" transform="scale(1,-1)"><g data-latex="\supseteq"><g data-latex="\supseteq"><path data-c="2287" d="M400 39C482 39 551 67 608 124C665 181 693 251 693 333C693 380 689 415 682 436C671 467 646 502 607 541C550 598 481 627 400 627L109 627C93 627 85 619 85 603C85 587 93 579 109 579L400 579C469 579 526 556 574 508C622 460 646 402 646 333C646 264 622 206 574 158C526 110 469 87 400 87L109 87C93 87 85 79 85 63C85 47 93 39 109 39M648-80L109-80C93-80 85-88 85-103C85-119 93-127 109-127L648-127C663-127 671-119 671-103C671-91 660-80 648-80Z"/></g></g></g></svg>
