<svg style="vertical-align: -0.789ex;" xmlns="http://www.w3.org/2000/svg" width="2.505ex" height="3.104ex" viewBox="0 -1023.3 1107.3 1371.9"><g stroke="currentColor" fill="currentColor" stroke-width="0" transform="scale(1,-1)"><g data-latex="\int_{a}^{b}"><g data-latex="\int_{a}^{b}"><g data-latex="\int" transform="translate(0 0.5)"><path data-c="222B" d="M497 805C421 805 370 747 344 630C340 613 335 578 328 526L315 425C301 313 292 230 288 175L269-72C262-169 246-276 168-276C147-276 129-271 114-261C135-255 146-241 146-219C146-192 128-173 101-173C71-173 56-189 56-220C56-273 111-306 168-306C249-306 305-246 335-127C356-43 375 107 391 324L410 571C414 628 421 673 430 705C443 747 452 775 498 775C519 775 537 770 551 760C530 754 519 740 519 718C519 691 537 672 564 672C594 672 609 688 609 719C609 772 554 805 497 805Z"/></g><g transform="translate(754,532.6) scale(0.707)" data-latex="{b}" data-mjx-texclass="ORD"><g data-latex="b"><path data-c="1D44F" d="M281 445C245 445 209 428 174 394L243 679C241 688 238 694 226 694C193 694 120 685 107 684C92 682 84 675 84 660C84 650 93 645 112 645C131 645 157 646 157 632C157 628 152 608 143 571L63 249C52 207 47 173 47 148C47 62 93-11 175-11C240-11 297 22 347 89C392 151 415 216 415 283C415 370 364 445 281 445M279 415C318 415 337 385 337 326C337 299 331 263 319 218C297 133 268 75 233 44C213 27 194 19 175 19C134 19 114 51 114 115C114 137 119 170 129 214L151 304C154 319 159 330 165 338C204 389 242 415 279 415Z"/></g></g><g transform="translate(578,-340.9) scale(0.707)" data-latex="{a}" data-mjx-texclass="ORD"><g data-latex="a"><path data-c="1D44E" d="M498 144C498 153 493 158 482 158C474 158 468 151 465 137C445 58 421 18 394 18C377 18 368 32 368 60C368 73 372 97 381 132L438 357C443 376 445 387 445 392C445 412 434 422 412 422C391 422 377 410 370 387C349 424 319 442 281 442C216 442 159 409 109 343C63 281 40 217 40 150C40 63 91-11 175-11C218-11 260 12 300 58C311 20 345-11 392-11C461-11 482 70 498 144M341 374C350 353 355 339 355 330C355 326 354 321 353 314L304 122C301 111 294 99 285 87C248 41 212 18 177 18C138 18 118 48 118 107C118 131 124 167 136 215C157 300 187 357 224 388C244 405 263 413 282 413C309 413 329 400 341 374Z"/></g></g></g></g></g></svg>
