<svg style="vertical-align: -0.691ex;" xmlns="http://www.w3.org/2000/svg" width="1.505ex" height="2.514ex" viewBox="0 -805.5 665 1111"><g stroke="currentColor" fill="currentColor" stroke-width="0" transform="scale(1,-1)"><g data-latex="\oint"><g data-latex="\oint" transform="translate(0 0.5)"><path data-c="222E" d="M497 805C421 805 370 747 344 630C339 609 331 553 319 461C264 456 219 433 183 392C147 351 129 304 129 249C129 148 197 71 278 47L269-72C259-208 225-276 168-276C147-276 129-271 114-261C135-255 146-241 146-219C146-192 128-173 101-173C71-173 56-189 56-220C56-273 111-306 168-306C249-306 305-246 335-127C341-102 349-47 360 38C415 43 460 66 496 106C532 146 551 194 551 249C551 350 482 428 401 452L410 571C414 628 421 672 430 705C443 747 452 775 498 775C519 775 537 770 551 760C530 754 519 740 519 718C519 691 537 672 564 672C594 672 609 688 609 719C609 772 554 805 497 805M366 87C377 192 389 296 398 403C454 382 504 323 504 249C504 165 441 98 366 87M313 412C302 307 290 203 281 96C225 119 176 174 176 249C176 334 237 401 313 412Z"/></g></g></g></svg>
