<svg style="vertical-align: -0.566ex;" xmlns="http://www.w3.org/2000/svg" width="3.557ex" height="2.262ex" viewBox="0 -750 1572 1000"><g stroke="currentColor" fill="currentColor" stroke-width="0" transform="scale(1,-1)"><g data-latex="\left\{ x \right\}"><g data-latex="\left\{ x \right\}"><g data-latex="\left\{"><path data-c="7B" d="M286-122L286 126C286 183 251 225 182 250C251 275 286 317 286 374L286 622C286 680 348 718 409 718C420 718 425 723 425 734C425 745 420 750 409 750C363 750 321 740 284 721C237 697 214 664 214 622L214 374C214 311 154 266 91 266C80 266 75 261 75 250C75 239 80 234 91 234C155 234 214 188 214 126L214-122C214-164 237-197 284-221C321-240 363-250 409-250C420-250 425-245 425-234C425-223 420-218 409-218C348-218 286-180 286-122Z"/></g><g data-latex="x" transform="translate(500,0)"><path data-c="1D465" d="M527 373C527 419 482 442 432 442C389 442 355 419 329 373C308 419 273 442 222 442C173 442 133 419 101 374C74 335 60 306 60 287C60 278 65 273 75 273C84 273 90 278 92 287C111 345 153 413 220 413C253 413 269 392 269 351C269 330 251 252 216 118C199 51 169 18 126 18C112 18 99 21 88 26C114 36 127 54 127 80C127 106 114 119 87 119C54 119 29 91 29 58C29 12 76-11 125-11C167-11 201 12 228 58C247 12 283-11 335-11C383-11 423 12 455 57C482 96 496 125 496 144C496 153 491 158 481 158C472 158 467 153 464 144C447 87 402 18 337 18C304 18 287 38 287 79C287 92 292 120 303 165L337 300C356 375 387 413 431 413C445 413 458 410 469 405C442 396 429 378 429 351C429 325 443 312 470 312C502 312 527 341 527 373Z"/></g><g data-latex="\right\}" transform="translate(1072,0)"><path data-c="7D" d="M286 374L286 622C286 664 263 697 216 721C179 740 137 750 91 750C80 750 75 745 75 734C75 723 80 718 91 718C152 718 214 680 214 622L214 374C214 317 249 275 318 250C249 225 214 183 214 126L214-122C214-180 152-218 91-218C80-218 75-223 75-234C75-245 80-250 91-250C137-250 179-240 216-221C263-197 286-164 286-122L286 126C286 188 345 234 409 234C420 234 425 239 425 250C425 261 420 266 409 266C345 266 286 312 286 374Z"/></g></g></g></g></svg>
