<svg style="vertical-align: -0.566ex;" xmlns="http://www.w3.org/2000/svg" width="3.095ex" height="2.262ex" viewBox="0 -750 1368 1000"><g stroke="currentColor" fill="currentColor" stroke-width="0" transform="scale(1,-1)"><g data-latex="\left\| x \right\|"><g data-latex="\left\| x \right\|"><g data-latex="\left\|"><path data-c="2016" d="M264-250C279-250 287-242 287-226L287 726C287 742 279 750 264 750C249 750 241 742 241 726L241-226C241-242 249-250 264-250M134-250C149-250 157-242 157-226L157 726C157 742 149 750 134 750C119 750 111 742 111 726L111-226C111-242 119-250 134-250Z"/></g><g data-latex="x" transform="translate(398,0)"><path data-c="1D465" d="M527 373C527 419 482 442 432 442C389 442 355 419 329 373C308 419 273 442 222 442C173 442 133 419 101 374C74 335 60 306 60 287C60 278 65 273 75 273C84 273 90 278 92 287C111 345 153 413 220 413C253 413 269 392 269 351C269 330 251 252 216 118C199 51 169 18 126 18C112 18 99 21 88 26C114 36 127 54 127 80C127 106 114 119 87 119C54 119 29 91 29 58C29 12 76-11 125-11C167-11 201 12 228 58C247 12 283-11 335-11C383-11 423 12 455 57C482 96 496 125 496 144C496 153 491 158 481 158C472 158 467 153 464 144C447 87 402 18 337 18C304 18 287 38 287 79C287 92 292 120 303 165L337 300C356 375 387 413 431 413C445 413 458 410 469 405C442 396 429 378 429 351C429 325 443 312 470 312C502 312 527 341 527 373Z"/></g><g data-latex="\right\|" transform="translate(970,0)"><path data-c="2016" d="M264-250C279-250 287-242 287-226L287 726C287 742 279 750 264 750C249 750 241 742 241 726L241-226C241-242 249-250 264-250M134-250C149-250 157-242 157-226L157 726C157 742 149 750 134 750C119 750 111 742 111 726L111-226C111-242 119-250 134-250Z"/></g></g></g></g></svg>
