<svg style="vertical-align: -0.566ex;" xmlns="http://www.w3.org/2000/svg" width="3.303ex" height="2.262ex" viewBox="0 -750 1460 1000"><g stroke="currentColor" fill="currentColor" stroke-width="0" transform="scale(1,-1)"><g data-latex="\left\lceil x \right\rceil"><g data-latex="\left\lceil x \right\rceil"><g data-latex="\left\lceil "><path data-c="2308" d="M393 750L174 750L174-226C174-242 182-250 197-250C212-250 220-242 220-226L220 702L393 702C408 702 416 710 416 726C416 739 405 750 393 750Z"/></g><g data-latex="x" transform="translate(444,0)"><path data-c="1D465" d="M527 373C527 419 482 442 432 442C389 442 355 419 329 373C308 419 273 442 222 442C173 442 133 419 101 374C74 335 60 306 60 287C60 278 65 273 75 273C84 273 90 278 92 287C111 345 153 413 220 413C253 413 269 392 269 351C269 330 251 252 216 118C199 51 169 18 126 18C112 18 99 21 88 26C114 36 127 54 127 80C127 106 114 119 87 119C54 119 29 91 29 58C29 12 76-11 125-11C167-11 201 12 228 58C247 12 283-11 335-11C383-11 423 12 455 57C482 96 496 125 496 144C496 153 491 158 481 158C472 158 467 153 464 144C447 87 402 18 337 18C304 18 287 38 287 79C287 92 292 120 303 165L337 300C356 375 387 413 431 413C445 413 458 410 469 405C442 396 429 378 429 351C429 325 443 312 470 312C502 312 527 341 527 373Z"/></g><g data-latex="\right\rceil" transform="translate(1016,0)"><path data-c="2309" d="M247-250C262-250 270-242 270-226L270 750L51 750C36 750 28 742 28 726C28 710 36 702 51 702L224 702L224-226C224-242 232-250 247-250Z"/></g></g></g></g></svg>
