<svg style="vertical-align: -0.025ex;" xmlns="http://www.w3.org/2000/svg" width="1.342ex" height="1.919ex" viewBox="0 -837 593 848"><g stroke="currentColor" fill="currentColor" stroke-width="0" transform="scale(1,-1)"><g data-latex="\vec{x}"><g data-latex="\vec{x}" data-mjx-texclass="ORD"><g><g data-latex="x"><path data-c="1D465" d="M527 373C527 419 482 442 432 442C389 442 355 419 329 373C308 419 273 442 222 442C173 442 133 419 101 374C74 335 60 306 60 287C60 278 65 273 75 273C84 273 90 278 92 287C111 345 153 413 220 413C253 413 269 392 269 351C269 330 251 252 216 118C199 51 169 18 126 18C112 18 99 21 88 26C114 36 127 54 127 80C127 106 114 119 87 119C54 119 29 91 29 58C29 12 76-11 125-11C167-11 201 12 228 58C247 12 283-11 335-11C383-11 423 12 455 57C482 96 496 125 496 144C496 153 491 158 481 158C472 158 467 153 464 144C447 87 402 18 337 18C304 18 287 38 287 79C287 92 292 120 303 165L337 300C356 375 387 413 431 413C445 413 458 410 469 405C442 396 429 378 429 351C429 325 443 312 470 312C502 312 527 341 527 373Z"/></g><g transform="translate(593,26)"><path data-c="20D7" d="M-69 599C-60 602-56 607-56 616C-56 625-60 630-69 633C-105 645-131 667-147 700C-150 707-156 711-163 711C-176 711-182 705-182 693C-182 678-169 658-143 634L-453 634C-466 634-472 628-472 616C-472 604-466 598-453 598L-143 598C-169 574-182 554-182 539C-182 527-176 521-163 521C-156 521-150 525-147 532C-131 565-105 587-69 599Z"/></g></g></g></g></g></svg>
