<svg style="vertical-align: -0.19ex;" xmlns="http://www.w3.org/2000/svg" width="1.76ex" height="1.509ex" viewBox="0 -583 778 667"><g stroke="currentColor" fill="currentColor" stroke-width="0" transform="scale(1,-1)"><g data-latex="\pm"><g data-latex="\pm"><path data-c="B1" d="M698-37L413-37L413 226L698 226C714 226 722 234 722 250C722 266 714 274 698 274L413 274L413 559C413 575 405 583 389 583C373 583 365 575 365 559L365 274L80 274C64 274 56 266 56 250C56 234 64 226 80 226L365 226L365-37L80-37C64-37 56-45 56-60C56-76 64-84 80-84L698-84C714-84 722-76 722-60C722-48 711-37 698-37Z"/></g></g></g></svg>
