<svg style="vertical-align: -0.188ex;" xmlns="http://www.w3.org/2000/svg" width="1.76ex" height="1.509ex" viewBox="0 -584 778 667"><g stroke="currentColor" fill="currentColor" stroke-width="0" transform="scale(1,-1)"><g data-latex="\mp"><g data-latex="\mp"><path data-c="2213" d="M698 274L413 274L413 537L698 537C714 537 722 545 722 560C722 576 714 584 698 584L80 584C64 584 56 576 56 560C56 545 64 537 80 537L365 537L365 274L80 274C64 274 56 266 56 250C56 234 64 226 80 226L365 226L365-59C365-75 373-83 389-83C405-83 413-75 413-59L413 226L698 226C714 226 722 234 722 250C722 263 711 274 698 274Z"/></g></g></g></svg>
