<svg style="vertical-align: -0.057ex;" xmlns="http://www.w3.org/2000/svg" width="2.796ex" height="1.609ex" viewBox="0 -686 1236 711"><g stroke="currentColor" fill="currentColor" stroke-width="0" transform="scale(1,-1)"><g data-latex="\div"><g data-latex="{\gradientnabla}" data-mjx-texclass="ORD"><g data-latex="\gradientnabla"><path data-c="1D6C1" d="M900 674C900 686 890 686 872 686L85 686C67 686 57 686 57 674C57 674 57 670 63 660L433 2C445-20 451-25 478-25C508-25 512-19 523 1L893 658C900 670 900 674 900 674M782 568L528 117L274 568Z"/></g></g><g data-latex="\vdot" transform="translate(958,0)"><path data-c="22C5" d="M192 250C192 279 168 303 139 303C110 303 86 279 86 250C86 221 110 197 139 197C168 197 192 221 192 250Z"/></g></g></g></svg>
