<svg style="vertical-align: -0.025ex;" xmlns="http://www.w3.org/2000/svg" width="2.262ex" height="1.025ex" viewBox="0 -442 1000 453"><g stroke="currentColor" fill="currentColor" stroke-width="0" transform="scale(1,-1)"><g data-latex="\infty"><g data-latex="\infty"><path data-c="221E" d="M749-11C807-11 855 13 892 60C926 104 943 156 943 216C943 275 926 327 893 371C856 418 809 442 752 442C684 442 625 416 576 364C547 332 524 303 507 278C464 329 435 361 421 373C367 419 310 442 250 442C192 442 144 418 107 371C73 327 56 275 56 215C56 156 73 104 106 60C143 13 190-11 247-11C315-11 374 15 423 67C452 99 475 128 492 153C535 102 564 70 578 58C632 12 689-11 749-11M913 216C913 188 911 168 908 156C903 137 890 117 869 94C840 61 805 44 765 44C722 44 680 67 637 113C592 168 559 209 538 237C601 348 675 403 759 403C852 403 913 314 913 216M86 215C86 260 100 299 128 334C156 369 191 387 234 387C277 387 319 364 362 318C407 263 440 222 461 194C398 83 324 28 240 28C147 28 86 117 86 215Z"/></g></g></g></svg>
