<svg style="vertical-align: 0.446ex;" xmlns="http://www.w3.org/2000/svg" width="1.756ex" height="0.24ex" viewBox="0 -303 776 106"><g stroke="currentColor" fill="currentColor" stroke-width="0" transform="scale(1,-1)"><g data-latex="\cdots"><g data-latex="\cdots"><path data-c="22EF" d="M720 250C720 280 694 303 664 303C633 303 607 280 607 250C607 220 633 197 664 197C694 197 720 220 720 250M444 250C444 280 418 303 388 303C357 303 332 280 332 250C332 220 357 197 388 197C418 197 444 220 444 250M169 250C169 280 143 303 112 303C82 303 56 280 56 250C56 220 82 197 112 197C142 197 169 220 169 250Z"/></g></g></g></svg>
