<svg style="vertical-align: -0.186ex;" xmlns="http://www.w3.org/2000/svg" width="0.493ex" height="1.502ex" viewBox="0 -582 218 664"><g stroke="currentColor" fill="currentColor" stroke-width="0" transform="scale(1,-1)"><g data-latex="\vdots"><g data-latex="\vdots"><path data-c="22EE" d="M162 526C162 556 139 582 109 582C79 582 56 556 56 526C56 495 79 469 109 469C139 469 162 496 162 526M162 250C162 280 139 306 109 306C79 306 56 281 56 250C56 219 79 194 109 194C139 194 162 220 162 250M162-26C162 5 139 31 109 31C79 31 56 5 56-26C56-56 79-82 109-82C139-82 162-56 162-26Z"/></g></g></g></svg>
