<svg style="vertical-align: 0;" xmlns="http://www.w3.org/2000/svg" width="1.387ex" height="1.131ex" viewBox="0 -500 613 500"><g stroke="currentColor" fill="currentColor" stroke-width="0" transform="scale(1,-1)"><g data-latex="\ddots"><g data-latex="\ddots"><path data-c="22F1" d="M557 56C557 87 532 112 501 112C469 112 445 88 445 56C445 25 470 0 501 0C533 0 557 24 557 56M169 444C169 474 143 500 113 500C81 500 57 476 57 444C57 413 82 388 113 388C145 388 169 412 169 444M363 250C363 280 337 306 307 306C277 306 251 280 251 250C251 220 277 194 307 194C337 194 363 220 363 250Z"/></g></g></g></svg>
