<svg style="vertical-align: -0.21ex;" xmlns="http://www.w3.org/2000/svg" width="1.769ex" height="1.548ex" viewBox="0 -591 782 684"><g stroke="currentColor" fill="currentColor" stroke-width="0" transform="scale(1,-1)"><g data-latex="\oplus"><g data-latex="\oplus"><path data-c="2295" d="M48 249C48 60 201-93 390-93C579-93 732 60 732 249C732 438 579 591 390 591C201 591 48 438 48 249M684 274L413 274L413 544C557 532 672 417 684 274M94 274C106 417 221 532 365 544L365 274M94 226L365 226L365-46C221-34 105 82 94 226M684 226C673 82 557-34 413-46L413 226Z"/></g></g></g></svg>
