<svg style="vertical-align: -0.21ex;" xmlns="http://www.w3.org/2000/svg" width="1.769ex" height="1.548ex" viewBox="0 -591 782 684"><g stroke="currentColor" fill="currentColor" stroke-width="0" transform="scale(1,-1)"><g data-latex="\odot"><g data-latex="\odot"><path data-c="2299" d="M94 249C94 412 227 545 390 545C553 545 686 412 686 249C686 86 553-47 390-47C227-47 94 86 94 249M49 249C49 60 202-93 391-93C580-93 733 60 733 249C733 438 580 591 391 591C202 591 49 438 49 249M335 250C335 219 360 194 391 194C422 194 447 219 447 250C447 281 422 306 391 306C360 306 335 281 335 250Z"/></g></g></g></svg>
