<svg style="vertical-align: -0.21ex;" xmlns="http://www.w3.org/2000/svg" width="1.769ex" height="1.548ex" viewBox="0 -591 782 684"><g stroke="currentColor" fill="currentColor" stroke-width="0" transform="scale(1,-1)"><g data-latex="\ominus"><g data-latex="\ominus"><path data-c="2296" d="M48 249C48 60 201-93 390-93C579-93 732 60 732 249C732 438 579 591 390 591C201 591 48 438 48 249M684 274L94 274C107 425 234 545 389 545C544 545 671 425 684 274M94 226L684 226C672 74 544-47 389-47C234-47 106 74 94 226Z"/></g></g></g></svg>
