<svg style="vertical-align: 0.226ex;" xmlns="http://www.w3.org/2000/svg" width="0.932ex" height="0.679ex" viewBox="0 -400 412 300"><g stroke="currentColor" fill="currentColor" stroke-width="0" transform="scale(1,-1)"><g data-latex="\circ"><g data-latex="\circ"><path data-c="2218" d="M356 250C356 300 347 321 312 356C283 385 247 400 206 400C124 400 56 332 56 250C56 168 124 100 206 100C288 100 356 168 356 250M309 250C309 208 303 200 279 177C259 157 235 147 206 147C149 147 103 193 103 250C103 307 149 353 206 353C263 353 309 307 309 250Z"/></g></g></g></svg>
