<svg style="vertical-align: 0.018ex;" xmlns="http://www.w3.org/2000/svg" width="1.131ex" height="1.081ex" viewBox="0 -486 500 478"><g stroke="currentColor" fill="currentColor" stroke-width="0" transform="scale(1,-1)"><g data-latex="\star"><g data-latex="\star"><path data-c="22C6" d="M492 294C496 296 498 299 498 302C498 310 494 314 486 314L290 281L261 477C259 483 255 486 250 486C245 486 241 483 239 477L210 281L14 314C6 314 2 310 2 302C2 299 4 296 8 294L186 205L94 30C88 21 102 8 111 17L250 158L389 17C398 8 411 21 406 30L314 205Z"/></g></g></g></svg>
