<svg style="vertical-align: -0.025ex;" xmlns="http://www.w3.org/2000/svg" width="1.21ex" height="1.595ex" viewBox="0 -694 535 705"><g stroke="currentColor" fill="currentColor" stroke-width="0" transform="scale(1,-1)"><g data-latex="\hbar"><g data-latex="\hbar"><path data-c="210F" d="M225 632C225 629 224 623 223 616L210 564L162 564C150 564 143 558 140 547C137 534 142 527 155 527L201 527L77 32C76 29 76 24 75 19C75-1 85-11 106-11C128-11 142-1 147 20L189 191C202 242 216 295 232 323C269 384 311 415 359 415C386 415 400 395 400 354C400 316 381 244 344 137C333 107 328 85 328 72C328 25 359-11 406-11C472-11 515 66 531 126C534 137 535 143 535 145C535 154 529 159 516 159C507 159 500 152 496 139C473 59 443 19 408 19C397 19 391 27 391 43C391 60 397 84 408 116C448 227 468 301 468 338C468 409 433 445 362 445C341 445 322 441 303 433C282 424 260 410 238 389L273 527L388 527C400 527 407 533 410 545C414 558 409 564 395 564L282 564L307 664C308 670 309 675 310 678C310 689 304 694 292 694C285 694 280 693 276 692L179 684C162 683 153 674 153 659C153 650 162 645 180 645C199 645 225 646 225 632Z"/></g></g></g></svg>
