<svg style="vertical-align: -0.05ex;" xmlns="http://www.w3.org/2000/svg" width="2.67ex" height="1.595ex" viewBox="0 -683 1180 705"><g stroke="currentColor" fill="currentColor" stroke-width="0" transform="scale(1,-1)"><g data-latex="\Re"><g data-latex="\Re" data-mjx-texclass="ORD"><g data-latex="Re"><path data-c="52" d="M611 501C611 558 580 604 519 639C468 668 411 683 349 683L35 683L35 644L63 644C98 644 119 641 126 636C133 631 137 620 137 602L137 81C137 63 133 51 126 46C119 41 98 38 63 38L35 38L35-1C62 2 111 3 183 3C256 3 305 2 332-1L332 38L304 38C269 38 248 41 241 46C234 51 230 63 230 81L230 327L340 327C404 327 451 289 462 235C464 224 465 200 465 165C465 138 466 118 467 106C473 22 546-22 634-22C672-22 699-6 714 25C726 48 732 70 732 91C732 104 726 111 715 111C706 111 700 105 699 92C694 36 673 8 638 8C603 8 591 41 585 70C579 104 575 130 572 147L559 226C544 278 507 316 448 339C524 361 611 415 611 501M470 600C491 581 502 548 502 501C502 463 492 431 473 404C450 373 405 357 336 357L230 357L230 609C230 630 236 641 248 642C255 643 274 644 306 644C385 644 426 641 470 600Z"/><path data-c="65" d="M415 251C415 366 348 448 236 448C176 448 126 425 85 378C47 334 28 281 28 220C28 157 49 104 91 58C133 12 185-11 247-11C304-11 348 9 378 48C403 81 415 105 415 121C415 131 409 136 398 136C390 136 385 131 382 120C360 54 317 21 253 21C208 21 173 42 146 85C127 116 118 163 117 227L387 227C409 227 415 229 415 251M326 349C337 316 342 284 342 255L118 255C121 321 138 366 168 389C193 409 215 419 236 419C281 419 311 396 326 349Z" transform="translate(736,0)"/></g></g></g></g></svg>
