<svg style="vertical-align: -0.043ex;" xmlns="http://www.w3.org/2000/svg" width="1.633ex" height="1.593ex" viewBox="0 -685 722 704"><g stroke="currentColor" fill="currentColor" stroke-width="0" transform="scale(1,-1)"><g data-latex="\mathbb{N}"><g data-latex="\mathbb{N}" data-mjx-texclass="ORD"><g data-latex="N"><path data-c="2115" d="M665 685L521 685C496 685 484 678 484 663C484 651 495 644 517 642C543 640 559 635 564 628C571 618 575 600 575 573L575 276L284 670C277 680 264 685 245 685L73 685C49 685 37 678 37 663C37 650 45 643 61 642C81 640 98 631 113 615C112 609 111 601 111 592L111 110C111 55 106 47 56 42C35 41 25 34 25 22C25 4 40 0 63 0L216 0C240 0 252 7 252 22C252 34 241 41 219 42C167 47 160 56 160 112L160 553L580-3C589-14 597-19 604-19C618-19 625-7 625 18L625 576C625 626 629 642 675 642C693 643 702 650 702 663C702 682 689 685 665 685M582 195L582 66L160 625C155 632 150 637 145 642L251 642Z"/></g></g></g></g></svg>
