<svg style="vertical-align: -0.043ex;" xmlns="http://www.w3.org/2000/svg" width="1.633ex" height="1.636ex" viewBox="0 -704 722 723"><g stroke="currentColor" fill="currentColor" stroke-width="0" transform="scale(1,-1)"><g data-latex="\mathbb{C}"><g data-latex="\mathbb{C}" data-mjx-texclass="ORD"><g data-latex="C"><path data-c="2102" d="M653 87C674 108 685 123 685 131C685 147 677 155 660 155C653 155 646 150 637 140C576 71 499 36 406 36C334 36 284 68 256 131C231 188 219 258 219 341C219 416 230 483 252 540C282 621 329 661 392 661C437 661 481 643 526 607C571 571 600 531 614 487C619 473 626 466 637 466C650 466 657 478 657 502L657 667C657 692 650 704 637 704C626 704 618 696 614 681C610 666 601 658 586 658C566 658 536 666 494 681C452 696 417 704 389 704C298 704 219 676 151 620C75 558 37 466 37 343C37 220 75 127 150 66C219 9 300-19 391-19C492-19 580 16 653 87M615 620L615 577C607 586 595 599 579 616L587 616C598 616 608 617 615 620M256 635C247 625 239 613 231 600C200 549 176 429 176 341C176 203 206 105 266 46C141 94 79 193 79 342C79 490 138 588 256 635Z"/></g></g></g></g></svg>
