<svg style="vertical-align: -0.249ex;" xmlns="http://www.w3.org/2000/svg" width="1.294ex" height="1.629ex" viewBox="0 -610 572 720"><g stroke="currentColor" fill="currentColor" stroke-width="0" transform="scale(1,-1)"><g data-latex="\Diamond"><g data-latex="\Diamond"><path data-c="25CA" d="M512 238C515 241 516 245 516 250C516 254 515 258 512 262L306 598C301 606 295 610 286 610C277 610 271 606 266 598L60 262C57 258 56 254 56 250C56 246 57 242 60 238L266-98C270-106 277-110 286-110C295-110 301-106 306-98M286 541L464 250L286-41L108 250Z"/></g></g></g></svg>
