<svg style="vertical-align: 0.251ex;" xmlns="http://www.w3.org/2000/svg" width="1.416ex" height="1.163ex" viewBox="0 -625 626 514"><g stroke="currentColor" fill="currentColor" stroke-width="0" transform="scale(1,-1)"><g data-latex="\triangleright"><g data-latex="\triangleright"><path data-c="25B9" d="M529 355C534 358 537 362 537 368C537 374 534 378 529 381L113 622C111 624 108 625 105 625C94 625 89 620 89 609L89 127C89 116 94 111 105 111C108 111 111 112 113 114M444 371C446 370 447 369 447 368C447 367 446 366 444 365L143 190L141 190C138 190 136 191 136 194L136 542C136 545 138 546 141 546L143 546Z"/></g></g></g></svg>
