<svg style="vertical-align: -0.455ex;" xmlns="http://www.w3.org/2000/svg" width="2.292ex" height="2.041ex" viewBox="0 -701 1013 902"><g stroke="currentColor" fill="currentColor" stroke-width="0" transform="scale(1,-1)"><g data-latex="\bigcirc"><g data-latex="\bigcirc"><path data-c="25EF" d="M507-201C588-201 664-181 733-140C854-69 957 69 957 250C957 275 957 294 956 305C953 356 933 413 896 476C825 598 688 701 507 701C426 701 350 681 280 640C158 569 56 431 56 250C56 169 76 94 117 24C188-98 326-201 507-201M507 653C619 653 714 614 792 536C870 458 909 362 909 250C909 185 904 138 895 110C880 67 846 19 792-35C713-114 618-153 507-153C395-153 300-114 222-36C144 42 104 138 104 250C104 362 144 458 222 536C300 614 395 653 507 653Z"/></g></g></g></svg>
