<svg style="vertical-align: 0;" xmlns="http://www.w3.org/2000/svg" width="1.258ex" height="1.548ex" viewBox="0 -684 556 684"><g stroke="currentColor" fill="currentColor" stroke-width="0" transform="scale(1,-1)"><g data-latex="\complement"><g data-latex="\complement"><path data-c="2201" d="M278 47C182 47 103 127 103 223L103 461C103 557 182 637 278 637C374 637 453 557 453 461C453 445 461 437 476 437C492 437 500 445 500 461C500 523 479 576 436 619C393 662 340 684 278 684C216 684 163 662 120 619C77 576 56 523 56 461L56 223C56 161 77 108 120 65C163 22 216 0 278 0C340 0 393 22 436 65C479 108 500 161 500 223C500 239 492 247 476 247C461 247 453 239 453 223C453 127 374 47 278 47Z"/></g></g></g></svg>
