<svg style="vertical-align: -0.025ex;" xmlns="http://www.w3.org/2000/svg" width="6.292ex" height="1.416ex" viewBox="0 -615 2781 626"><g stroke="currentColor" fill="currentColor" stroke-width="0" transform="scale(1,-1)"><g data-latex="\arctan"><g data-latex="\arctan"><path data-c="61" d="M483 91L483 150L451 150L451 91C451 52 440 32 419 32C399 32 387 57 387 77L387 274C387 309 383 335 376 353C352 412 283 448 213 448C136 448 60 405 60 333C60 300 77 283 110 283C143 283 159 299 159 332C159 361 144 378 113 381C135 406 168 419 211 419C273 419 311 362 311 297L311 264C233 259 174 247 133 228C66 197 32 154 32 97C32 71 42 49 61 32C93 3 137-11 193-11C252-11 294 14 320 65C327 27 355-6 398-6C451-6 483 36 483 91M200 18C154 18 116 52 116 98C116 191 213 231 311 236L311 141C311 74 267 18 200 18Z"/><path data-c="72" d="M364 378C364 417 327 442 288 442C237 442 198 412 172 351L172 442L28 431L28 393C63 393 84 390 92 384C100 378 104 365 104 342L104 79C104 60 101 48 94 44C87 40 65 38 28 38L28 0L143 3C185 4 228 3 271 0L271 38L247 38C214 38 193 41 186 46C179 51 176 63 176 81L176 232C176 275 184 314 199 347C219 390 248 412 287 413C277 403 272 391 272 377C272 346 287 331 318 331C345 331 364 352 364 378Z" transform="translate(500,0)"/><path data-c="63" d="M251 416C293 416 325 406 347 386C323 383 306 361 306 338C306 305 322 289 355 289C388 289 404 306 404 339C404 410 327 448 250 448C188 448 137 426 96 380C55 334 34 279 34 216C34 155 55 101 96 56C137 11 187-11 248-11C298-11 337 3 365 32C388 55 403 78 411 102C414 111 415 117 415 121C415 130 409 134 398 134C390 134 385 130 382 122C361 55 320 21 257 21C228 21 200 34 172 61C139 92 123 144 123 218C123 318 161 416 251 416Z" transform="translate(892,0)"/><path data-c="74" d="M332 126L332 186L300 186L300 128C300 78 282 22 238 22C197 22 177 56 177 124L177 395L316 395L316 433L177 433L177 615L145 615C144 582 141 553 134 527C117 461 78 427 19 424L19 395L102 395L102 126C102 67 120 29 155 10C182-4 207-11 232-11C298-11 332 55 332 126Z" transform="translate(1336,0)"/><path data-c="61" d="M483 91L483 150L451 150L451 91C451 52 440 32 419 32C399 32 387 57 387 77L387 274C387 309 383 335 376 353C352 412 283 448 213 448C136 448 60 405 60 333C60 300 77 283 110 283C143 283 159 299 159 332C159 361 144 378 113 381C135 406 168 419 211 419C273 419 311 362 311 297L311 264C233 259 174 247 133 228C66 197 32 154 32 97C32 71 42 49 61 32C93 3 137-11 193-11C252-11 294 14 320 65C327 27 355-6 398-6C451-6 483 36 483 91M200 18C154 18 116 52 116 98C116 191 213 231 311 236L311 141C311 74 267 18 200 18Z" transform="translate(1725,0)"/><path data-c="6E" d="M314 413C359 413 382 378 382 307L382 79C382 60 379 48 372 44C365 40 343 38 306 38L306 0L421 3L535 0L535 38C503 38 482 39 472 42C462 45 458 52 458 64L458 251C458 298 457 331 454 350C444 411 399 442 320 442C257 442 210 412 179 352L179 442L32 431L32 393C68 393 90 390 98 384C106 378 109 365 109 342L109 79C109 60 105 48 98 44C91 40 69 38 32 38L32 0L147 3L261 0L261 38C224 38 203 40 196 44C189 48 185 60 185 79L185 259C185 340 236 413 314 413Z" transform="translate(2225,0)"/></g></g></g></svg>
