<svg style="vertical-align: -0.466ex;" xmlns="http://www.w3.org/2000/svg" width="2.891ex" height="2.036ex" viewBox="0 -694 1278 900"><g stroke="currentColor" fill="currentColor" stroke-width="0" transform="scale(1,-1)"><g data-latex="\log"><g data-latex="\log"><path data-c="6C" d="M144 3L255 0L255 39C219 39 197 40 190 44C183 48 180 60 180 79L180 694L33 683L33 645C68 645 90 642 97 636C104 630 108 616 108 593L108 79C108 60 105 48 98 44C91 40 69 39 33 39L33 0Z"/><path data-c="6F" d="M249-11C311-11 363 11 406 55C449 99 471 152 471 214C471 277 450 332 408 378C366 424 313 448 250 448C187 448 135 424 92 378C49 332 28 277 28 214C28 152 49 99 92 55C135 11 188-11 249-11M250 21C202 21 166 42 141 85C125 113 117 159 117 222C117 283 125 327 140 355C164 398 200 419 249 419C296 419 332 398 357 357C374 329 382 284 382 222C382 106 348 21 250 21Z" transform="translate(278,0)"/><path data-c="67" d="M431 453C393 453 358 438 326 408C296 431 262 442 223 442C137 442 59 378 59 294C59 252 74 218 104 192C85 168 75 141 75 110C75 72 88 43 113 24C71 10 28-26 28-77C28-120 56-154 111-178C153-197 199-206 249-206C300-206 347-197 389-178C444-154 471-120 471-75C471-22 449 17 405 42C359 67 308 70 234 70C190 70 166 70 161 71C133 75 113 102 113 133C113 148 117 162 126 174C154 155 186 145 223 145C309 145 386 209 386 293C386 332 373 364 347 389C372 412 399 423 428 423C423 418 420 410 420 400C420 378 431 367 453 367C474 367 485 378 485 401C485 432 461 453 431 453M223 411C277 411 304 372 304 294C304 215 277 175 223 175C168 175 141 214 141 293C141 372 168 411 223 411M164 4L222 4C274 4 316 1 348-6C391-15 412-39 412-77C412-109 392-134 352-153C321-168 287-175 250-175C214-175 180-168 148-153C107-134 87-109 87-77C87-35 123 4 164 4Z" transform="translate(778,0)"/></g></g></g></svg>
