<svg style="vertical-align: -0.439ex;" xmlns="http://www.w3.org/2000/svg" width="3.457ex" height="1.452ex" viewBox="0 -448 1528 642"><g stroke="currentColor" fill="currentColor" stroke-width="0" transform="scale(1,-1)"><g data-latex="\exp"><g data-latex="\exp"><path data-c="65" d="M415 251C415 366 348 448 236 448C176 448 126 425 85 378C47 334 28 281 28 220C28 157 49 104 91 58C133 12 185-11 247-11C304-11 348 9 378 48C403 81 415 105 415 121C415 131 409 136 398 136C390 136 385 131 382 120C360 54 317 21 253 21C208 21 173 42 146 85C127 116 118 163 117 227L387 227C409 227 415 229 415 251M326 349C337 316 342 284 342 255L118 255C121 321 138 366 168 389C193 409 215 419 236 419C281 419 311 396 326 349Z"/><path data-c="78" d="M418 3C441 4 474 3 516 0L516 38C463 38 443 39 422 67L292 235C335 288 364 324 380 343C408 375 447 392 498 393L498 431C470 429 442 428 414 428C377 428 344 429 315 431L315 393C334 391 344 382 344 366C344 357 339 346 330 334L272 262L198 357C193 364 190 369 190 372C190 385 202 392 225 393L225 431L114 428C88 427 56 428 17 431L17 393C53 393 76 390 86 385C96 380 112 363 134 334L229 210C180 147 150 109 139 96C107 57 65 38 12 38L12 0C49 3 77 4 98 3L195 0L195 38C176 41 167 50 167 65C167 69 168 74 170 79C176 92 203 126 251 183L323 89C334 75 340 65 343 59C343 46 331 39 307 38L307 0Z" transform="translate(444,0)"/><path data-c="70" d="M298-13C360-13 413 9 456 54C499 99 521 152 521 215C521 276 501 328 462 372C421 419 371 442 311 442C260 442 216 422 178 383L178 442L28 431L28 393C65 393 87 391 94 386C101 381 105 368 105 347L105-115C105-134 101-146 94-150C87-154 65-155 28-155L28-194L142-191L257-194L257-155C220-155 199-154 192-150C185-146 181-134 181-115L181 44C203 13 246-13 298-13M304 409C345 409 377 386 402 340C421 301 431 260 431 215C431 168 420 125 398 86C372 39 337 16 294 16C252 16 219 36 194 75C185 88 181 101 181 114L181 333C210 384 251 409 304 409Z" transform="translate(972,0)"/></g></g></g></svg>
