<svg style="vertical-align: -0.466ex;" xmlns="http://www.w3.org/2000/svg" width="3.394ex" height="2.036ex" viewBox="0 -694 1500 900"><g stroke="currentColor" fill="currentColor" stroke-width="0" transform="scale(1,-1)"><g data-latex="\gcd"><g data-latex="\gcd"><path data-c="67" d="M431 453C393 453 358 438 326 408C296 431 262 442 223 442C137 442 59 378 59 294C59 252 74 218 104 192C85 168 75 141 75 110C75 72 88 43 113 24C71 10 28-26 28-77C28-120 56-154 111-178C153-197 199-206 249-206C300-206 347-197 389-178C444-154 471-120 471-75C471-22 449 17 405 42C359 67 308 70 234 70C190 70 166 70 161 71C133 75 113 102 113 133C113 148 117 162 126 174C154 155 186 145 223 145C309 145 386 209 386 293C386 332 373 364 347 389C372 412 399 423 428 423C423 418 420 410 420 400C420 378 431 367 453 367C474 367 485 378 485 401C485 432 461 453 431 453M223 411C277 411 304 372 304 294C304 215 277 175 223 175C168 175 141 214 141 293C141 372 168 411 223 411M164 4L222 4C274 4 316 1 348-6C391-15 412-39 412-77C412-109 392-134 352-153C321-168 287-175 250-175C214-175 180-168 148-153C107-134 87-109 87-77C87-35 123 4 164 4Z"/><path data-c="63" d="M251 416C293 416 325 406 347 386C323 383 306 361 306 338C306 305 322 289 355 289C388 289 404 306 404 339C404 410 327 448 250 448C188 448 137 426 96 380C55 334 34 279 34 216C34 155 55 101 96 56C137 11 187-11 248-11C298-11 337 3 365 32C388 55 403 78 411 102C414 111 415 117 415 121C415 130 409 134 398 134C390 134 385 130 382 122C361 55 320 21 257 21C228 21 200 34 172 61C139 92 123 144 123 218C123 318 161 416 251 416Z" transform="translate(500,0)"/><path data-c="64" d="M374-11L527 0L527 38C491 38 470 40 462 46C454 52 450 67 450 90L450 694L301 683L301 645C336 645 358 642 366 636C374 630 377 616 377 593L377 390C345 427 305 445 257 445C195 445 142 423 99 378C56 333 34 279 34 216C34 155 54 102 95 57C136 12 186-11 247-11C298-11 341 8 374 47M261 415C304 415 339 396 364 358C371 347 374 336 374 323L374 121C374 108 371 97 364 86C336 41 298 19 251 19C210 19 177 39 151 80C133 110 124 155 124 215C124 324 161 415 261 415Z" transform="translate(944,0)"/></g></g></g></svg>
