<svg style="vertical-align: -0.025ex;" xmlns="http://www.w3.org/2000/svg" width="4.21ex" height="1.038ex" viewBox="0 -448 1861 459"><g stroke="currentColor" fill="currentColor" stroke-width="0" transform="scale(1,-1)"><g data-latex="\max"><g data-latex="\max"><path data-c="6D" d="M315 413C361 413 384 378 384 307L384 79C384 60 381 48 374 44C367 40 344 38 307 38L307 0L423 3L538 0L538 38C501 38 479 40 472 44C465 48 461 60 461 79L461 259C461 339 513 413 590 413C637 413 660 378 660 307L660 79C660 60 656 48 649 44C642 40 619 38 582 38L582 0L698 3L813 0L813 38C781 38 760 39 750 42C740 45 736 52 736 64L736 251C736 298 734 331 731 350C721 411 676 442 597 442C534 442 487 413 455 354C441 413 397 442 322 442C259 442 211 412 179 352L179 442L32 431L32 393C68 393 90 390 98 384C106 378 109 365 109 342L109 79C109 60 105 48 98 44C91 40 69 38 32 38L32 0L148 3L263 0L263 38C226 38 203 40 196 44C189 48 185 60 185 79L185 259C185 340 238 413 315 413Z"/><path data-c="61" d="M483 91L483 150L451 150L451 91C451 52 440 32 419 32C399 32 387 57 387 77L387 274C387 309 383 335 376 353C352 412 283 448 213 448C136 448 60 405 60 333C60 300 77 283 110 283C143 283 159 299 159 332C159 361 144 378 113 381C135 406 168 419 211 419C273 419 311 362 311 297L311 264C233 259 174 247 133 228C66 197 32 154 32 97C32 71 42 49 61 32C93 3 137-11 193-11C252-11 294 14 320 65C327 27 355-6 398-6C451-6 483 36 483 91M200 18C154 18 116 52 116 98C116 191 213 231 311 236L311 141C311 74 267 18 200 18Z" transform="translate(833,0)"/><path data-c="78" d="M418 3C441 4 474 3 516 0L516 38C463 38 443 39 422 67L292 235C335 288 364 324 380 343C408 375 447 392 498 393L498 431C470 429 442 428 414 428C377 428 344 429 315 431L315 393C334 391 344 382 344 366C344 357 339 346 330 334L272 262L198 357C193 364 190 369 190 372C190 385 202 392 225 393L225 431L114 428C88 427 56 428 17 431L17 393C53 393 76 390 86 385C96 380 112 363 134 334L229 210C180 147 150 109 139 96C107 57 65 38 12 38L12 0C49 3 77 4 98 3L195 0L195 38C176 41 167 50 167 65C167 69 168 74 170 79C176 92 203 126 251 183L323 89C334 75 340 65 343 59C343 46 331 39 307 38L307 0Z" transform="translate(1333,0)"/></g></g></g></svg>
