<svg style="vertical-align: 0;" xmlns="http://www.w3.org/2000/svg" width="2.428ex" height="1.545ex" viewBox="0 -683 1073 683"><g stroke="currentColor" fill="currentColor" stroke-width="0" transform="scale(1,-1)"><g data-latex="\Pr"><g data-latex="\Pr"><path data-c="50" d="M395 312C452 312 503 328 548 360C599 396 624 441 624 495C624 552 598 599 546 635C500 667 447 683 387 683L35 683L35 644L63 644C98 644 119 641 126 636C133 631 137 620 137 602L137 81C137 63 133 51 126 46C119 41 98 39 63 39L35 39L35 0C61 2 111 3 184 3C258 3 308 2 334 0L334 39L306 39C271 39 250 41 243 46C236 51 232 63 232 81L232 312M274 644L362 644C391 644 416 640 437 633C494 612 514 570 514 495C514 467 511 443 504 423C487 373 433 346 362 346L229 346L229 609C229 645 235 644 274 644Z"/><path data-c="72" d="M364 378C364 417 327 442 288 442C237 442 198 412 172 351L172 442L28 431L28 393C63 393 84 390 92 384C100 378 104 365 104 342L104 79C104 60 101 48 94 44C87 40 65 38 28 38L28 0L143 3C185 4 228 3 271 0L271 38L247 38C214 38 193 41 186 46C179 51 176 63 176 81L176 232C176 275 184 314 199 347C219 390 248 412 287 413C277 403 272 391 272 377C272 346 287 331 318 331C345 331 364 352 364 378Z" transform="translate(681,0)"/></g></g></g></svg>
