<svg style="vertical-align: -0.566ex;" xmlns="http://www.w3.org/2000/svg" width="3.18ex" height="2.262ex" viewBox="0 -750 1405.7 1000"><g stroke="currentColor" fill="currentColor" stroke-width="0" transform="scale(1,-1)"><g data-latex="\bra{x}"><g data-latex="\left\langle{x}\right\vert"><g data-latex="\left\langle"><path data-c="27E8" d="M313-250C328-250 336-242 336-226C336-223 336-220 335-218L158 250L335 717C336 719 336 722 336 726C336 742 328 750 313 750C302 750 295 745 291 735L111 259C110 257 110 254 110 250C110 247 110 244 111 242L291-235C295-245 302-250 313-250Z"/></g><g data-latex="{x}" data-mjx-texclass="ORD" transform="translate(389,0)"><g data-latex="x"><path data-c="1D465" d="M527 373C527 419 482 442 432 442C389 442 355 419 329 373C308 419 273 442 222 442C173 442 133 419 101 374C74 335 60 306 60 287C60 278 65 273 75 273C84 273 90 278 92 287C111 345 153 413 220 413C253 413 269 392 269 351C269 330 251 252 216 118C199 51 169 18 126 18C112 18 99 21 88 26C114 36 127 54 127 80C127 106 114 119 87 119C54 119 29 91 29 58C29 12 76-11 125-11C167-11 201 12 228 58C247 12 283-11 335-11C383-11 423 12 455 57C482 96 496 125 496 144C496 153 491 158 481 158C472 158 467 153 464 144C447 87 402 18 337 18C304 18 287 38 287 79C287 92 292 120 303 165L337 300C356 375 387 413 431 413C445 413 458 410 469 405C442 396 429 378 429 351C429 325 443 312 470 312C502 312 527 341 527 373Z"/></g></g><g data-latex="\right\vert" transform="translate(961,0)"><path data-c="7C" d="M139-250C152-250 159-242 159-226L159 726C159 742 152 750 139 750C126 750 119 742 119 726L119-226C119-242 126-250 139-250Z"/></g></g><g data-latex="{}" data-mjx-texclass="ORD" transform="translate(1405.7,0)"/></g></g></svg>
