<svg style="vertical-align: 0;" xmlns="http://www.w3.org/2000/svg" width="1.258ex" height="1.548ex" viewBox="0 -684 556 684"><g stroke="currentColor" fill="currentColor" stroke-width="0" transform="scale(1,-1)"><g data-latex="\exists"><g data-latex="\exists"><path data-c="2203" d="M476 0C492 0 500 8 500 24L500 660C500 676 492 684 476 684L80 684C64 684 56 676 56 660C56 645 64 637 80 637L453 637L453 366L80 366C64 366 56 358 56 342C56 326 64 318 80 318L453 318L453 47L80 47C64 47 56 39 56 24C56 8 64 0 80 0Z"/></g></g></g></svg>
