<svg style="vertical-align: -0.238ex;" xmlns="http://www.w3.org/2000/svg" width="1.258ex" height="2.023ex" viewBox="0 -789 556 894"><g stroke="currentColor" fill="currentColor" stroke-width="0" transform="scale(1,-1)"><g data-latex="\nexists"><g data-latex="\nexists"><path data-c="2204" d="M476-1C492-1 500 7 500 23L500 661C500 677 492 685 476 685L427 685L453 757C454 760 455 762 455 765C455 781 447 789 431 789C419 789 412 784 409 773L376 685L80 685C64 685 56 677 56 661C56 645 64 637 80 637L360 637L261 366L80 366C64 366 56 358 56 342C56 326 64 318 80 318L244 318L147 47L80 47C64 47 56 39 56 23C56 7 64-1 80-1L129-1L103-73C102-75 102-78 102-81C102-97 110-105 126-105C137-105 144-100 147-89L180-1M453 637L453 366L312 366L409 637M453 318L453 47L196 47L294 318Z"/></g></g></g></svg>
