<svg style="vertical-align: -0.176ex;" xmlns="http://www.w3.org/2000/svg" width="1.131ex" height="1.923ex" viewBox="0 -772 500 850"><g stroke="currentColor" fill="currentColor" stroke-width="0" transform="scale(1,-1)"><g data-latex="\emptyset"><g data-latex="\emptyset"><path data-c="2205" d="M423 121C442 172 452 247 452 345C452 374 451 399 450 420C443 535 415 618 367 667L389 748C389 764 381 772 366 772C355 772 348 767 344 756C336 730 330 710 327 697C300 710 275 717 250 717C219 717 189 708 160 690C85 643 47 528 47 345C47 184 75 78 132 27L110-54C110-70 118-78 133-78C144-78 151-73 155-62C163-36 169-17 172-4C197-17 222-23 249-23C330-23 388 25 423 121M250 687C274 687 296 679 316 662L148 84C130 133 121 224 121 357C121 454 125 525 134 568C151 647 189 687 250 687M249 7C226 7 204 16 184 33L351 613C378 553 378 459 378 357C378 188 375 7 249 7Z"/></g></g></g></svg>
