<svg style="vertical-align: -0.486ex;" xmlns="http://www.w3.org/2000/svg" width="1.229ex" height="1.486ex" viewBox="0 -442 543 657"><g stroke="currentColor" fill="currentColor" stroke-width="0" transform="scale(1,-1)"><g data-latex="\gamma"><g data-latex="\gamma"><path data-c="1D6FE" d="M524 378C537 403 543 416 543 417C543 426 538 431 527 431C520 431 515 428 512 422C477 357 436 265 388 146C384 212 371 274 349 331C320 405 275 442 214 442C151 442 96 400 68 361C35 314 18 279 18 257C18 248 26 243 43 243L48 250C65 302 94 335 135 349C163 358 185 363 201 363C305 363 357 281 357 116C357 77 353 45 345 20C311-91 294-162 294-193C294-208 300-215 311-215C323-215 335-194 346-153C363-89 375-32 382 18C385 33 387 46 390 55C426 167 471 275 524 378Z"/></g></g></g></svg>
