<svg style="vertical-align: -0.025ex;" xmlns="http://www.w3.org/2000/svg" width="1.023ex" height="1.636ex" viewBox="0 -712 452 723"><g stroke="currentColor" fill="currentColor" stroke-width="0" transform="scale(1,-1)"><g data-latex="\delta"><g data-latex="\delta"><path data-c="1D6FF" d="M452 664C452 679 444 689 428 693C377 706 339 712 315 712C244 712 201 672 201 606C201 567 220 511 259 438C156 412 76 321 51 220C46 199 43 178 43 159C43 121 52 87 71 58C101 12 145-11 202-11C244-11 282 8 317 47C372 110 400 190 400 285C400 346 380 402 339 453L332 462C267 546 235 602 235 630C235 636 236 641 239 645C249 663 265 672 288 671C305 671 326 663 351 648C382 629 401 620 408 620C430 620 452 638 452 664M111 131C111 188 125 243 154 297C185 357 225 395 274 410C296 372 311 333 320 294C323 279 324 262 324 245C324 217 321 191 315 166C290 68 252 19 203 19C146 19 111 66 111 131Z"/></g></g></g></svg>
