<svg style="vertical-align: -0.025ex;" xmlns="http://www.w3.org/2000/svg" width="0.919ex" height="1ex" viewBox="0 -431 406 442"><g stroke="currentColor" fill="currentColor" stroke-width="0" transform="scale(1,-1)"><g data-latex="\epsilon"><g data-latex="\epsilon"><path data-c="1D716" d="M228-11C268-11 305 0 339 22C352 31 358 38 358 43C358 55 353 61 344 61L330 54C293 30 260 18 230 18C163 18 128 72 128 142C128 168 131 195 138 222L296 222C321 222 333 229 333 242C333 254 322 260 301 260L148 260C175 349 229 393 310 393L340 393C364 393 376 400 376 413C376 425 365 431 343 431L309 431C238 431 176 407 124 358C72 309 47 250 47 179C47 71 120-11 228-11Z"/></g></g></g></svg>
