<svg style="vertical-align: -0.05ex;" xmlns="http://www.w3.org/2000/svg" width="1.054ex" height="1.075ex" viewBox="0 -453 466 475"><g stroke="currentColor" fill="currentColor" stroke-width="0" transform="scale(1,-1)"><g data-latex="\varepsilon"><g data-latex="\varepsilon"><path data-c="1D700" d="M429 393C429 405 416 418 388 432C360 446 330 453 299 453C250 453 202 441 157 418C103 390 76 353 76 308C76 282 88 259 112 239C71 214 26 165 26 106C26 24 104-22 190-22C239-22 280-11 313 10C356 37 378 62 378 83C378 92 373 97 363 97C358 97 354 94 350 88C325 44 286 31 199 31C176 31 154 33 134 37C97 44 59 71 59 112C59 161 105 204 143 222C165 213 193 209 227 209C282 209 310 221 310 244C310 264 285 274 235 274C201 274 171 268 144 256C120 269 108 286 108 308C108 339 132 364 179 381C214 394 251 400 289 400C322 400 352 391 377 373C387 366 394 363 399 363C414 363 429 378 429 393M235 245C246 245 256 244 266 242C256 240 243 239 227 239C214 239 202 239 193 240C206 243 220 245 235 245Z"/></g></g></g></svg>
