<svg style="vertical-align: -0.025ex;" xmlns="http://www.w3.org/2000/svg" width="1.061ex" height="1.62ex" viewBox="0 -705 469 716"><g stroke="currentColor" fill="currentColor" stroke-width="0" transform="scale(1,-1)"><g data-latex="\theta"><g data-latex="\theta"><path data-c="1D703" d="M164-11C209-11 256 16 302 70C382 163 455 335 455 498C455 539 448 582 434 625C416 678 382 705 333 705C288 705 243 678 196 624C116 532 42 360 42 196C42 94 75-11 164-11M332 675C365 675 382 637 382 560C382 517 372 452 352 367L155 367C180 460 204 529 229 574C266 641 301 675 332 675M145 327L341 327C322 246 299 181 274 132C235 57 199 19 164 19C131 19 115 58 115 135C115 185 125 249 145 327Z"/></g></g></g></svg>
