<svg style="vertical-align: -0.464ex;" xmlns="http://www.w3.org/2000/svg" width="1.072ex" height="2.041ex" viewBox="0 -697 474 902"><g stroke="currentColor" fill="currentColor" stroke-width="0" transform="scale(1,-1)"><g data-latex="\zeta"><g data-latex="\zeta"><path data-c="1D701" d="M276-175C251-175 228-165 206-146C200-141 195-139 191-139C182-139 178-144 178-153C178-158 182-165 191-173C215-194 243-205 276-205C337-205 387-142 387-81C387-32 355-1 315 16C302 20 185 62 182 63C133 84 108 128 108 195C108 262 129 334 172 410C215 486 265 540 322 571C335 560 355 554 383 554C444 554 474 566 474 589C474 610 447 620 392 620C368 620 348 617 331 611C328 621 326 632 326 643C326 652 328 665 331 680C331 691 326 697 315 697C300 697 293 679 293 644C293 626 296 610 303 597C233 560 173 499 122 414C71 329 46 247 46 168C46 92 76 36 122 9C161-10 190-22 209-29C248-46 294-52 315-80C323-89 327-101 327-114C327-144 306-175 276-175M391 590C404 590 417 589 428 587C416 585 401 584 384 584C373 584 364 585 357 587C366 589 377 590 391 590Z"/></g></g></g></svg>
