<svg style="vertical-align: -0.489ex;" xmlns="http://www.w3.org/2000/svg" width="1.124ex" height="1.489ex" viewBox="0 -442 497 658"><g stroke="currentColor" fill="currentColor" stroke-width="0" transform="scale(1,-1)"><g data-latex="\eta"><g data-latex="\eta"><path data-c="1D702" d="M379 442C318 442 268 415 229 362C222 407 187 442 136 442C95 442 65 409 44 344C34 311 29 292 29 286C29 277 34 272 45 272C50 272 53 273 56 275C61 284 64 291 65 298C83 374 106 412 133 412C151 412 160 398 160 371C160 358 155 330 144 289L87 61C84 48 78 22 78 17C78-3 89-13 111-13C130-13 144-3 151 17C152 22 158 47 169 90L191 179C203 228 212 265 219 290C222 297 230 311 243 331C279 385 323 412 376 412C409 412 425 390 425 347C425 332 422 312 415 286L303-169C301-177 300-182 300-185C300-206 311-216 332-216C354-216 369-202 376-173L488 274C493 295 496 315 496 332C496 404 451 442 379 442Z"/></g></g></g></svg>
