<svg style="vertical-align: -0.464ex;" xmlns="http://www.w3.org/2000/svg" width="1.009ex" height="2.041ex" viewBox="0 -697 446 902"><g stroke="currentColor" fill="currentColor" stroke-width="0" transform="scale(1,-1)"><g data-latex="\xi"><g data-latex="\xi"><path data-c="1D709" d="M101 420C101 375 121 340 161 315C69 244 23 174 23 105C23 70 40 42 52 24C69 7 86-6 105-16C154-37 226-64 286-88C307-98 318-101 318-127C318-152 299-175 274-175C246-175 218-165 190-144C185-141 180-139 177-139C168-139 163-144 163-153C163-158 169-165 180-174C207-195 238-205 274-205C331-205 380-152 380-95C380-58 364-34 331-21L271 2C242 13 222 20 211 25L152 48C105 67 81 96 81 133C81 200 149 271 198 297C222 289 251 285 284 285C347 285 379 296 379 319C379 340 351 350 295 350C265 350 238 346 214 339C196 358 187 382 187 412C187 485 239 549 291 575C304 561 325 554 355 554C416 554 446 566 446 589C446 610 418 620 361 620C338 620 318 618 301 615C299 624 298 633 298 643C298 652 300 665 303 680C303 691 298 697 287 697C272 697 265 679 265 644C265 637 267 626 271 609C190 584 101 516 101 420M362 590C376 590 389 589 400 587C388 585 373 584 356 584C343 584 333 585 326 588C335 589 347 590 362 590M294 320C309 320 323 319 334 318C323 315 307 314 287 314C274 314 262 315 253 318C265 319 279 320 294 320Z"/></g></g></g></svg>
