<svg style="vertical-align: -0.029ex;" xmlns="http://www.w3.org/2000/svg" width="1.319ex" height="1.6ex" viewBox="0 -694 583 707"><g stroke="currentColor" fill="currentColor" stroke-width="0" transform="scale(1,-1)"><g data-latex="\lambda"><g data-latex="\lambda"><path data-c="1D706" d="M86-13C97-13 109-6 122 9L355 285C390 189 416 117 433 68C444 37 451 19 456 12C467-3 486-11 512-11L533-11C543-10 548-6 548 3C548 5 546 9 542 14C535 21 528 36 520 59L319 621C302 670 261 694 196 694C181 694 174 689 174 679C174 672 180 667 191 664C205 660 214 655 219 649C226 641 236 621 247 589L342 322L72 53C59 40 53 29 53 20C53 2 68-13 86-13Z"/></g></g></g></svg>
