<svg style="vertical-align: -0.025ex;" xmlns="http://www.w3.org/2000/svg" width="1.337ex" height="1.62ex" viewBox="0 -705 591 716"><g stroke="currentColor" fill="currentColor" stroke-width="0" transform="scale(1,-1)"><g data-latex="\vartheta"><g data-latex="\vartheta"><path data-c="1D717" d="M136 445C95 445 65 412 44 347C34 314 29 295 29 289C29 280 34 275 45 275C50 275 53 276 56 278C61 287 64 294 65 301C83 377 106 415 133 415C151 415 160 401 160 374C160 361 152 324 137 263L120 191C111 153 106 125 106 107C106 28 152-11 243-11C374-11 470 201 506 331L547 322C556 322 561 327 561 338C561 345 553 351 537 354L513 359C525 413 531 461 531 504C531 537 526 575 516 616C501 675 469 705 418 705C377 705 342 684 311 642C282 603 268 563 268 520C268 444 322 388 429 351C408 264 385 194 360 142C321 60 283 19 246 19C200 19 177 44 177 94C177 112 181 138 189 173L220 297C227 324 230 341 230 350C230 405 191 445 136 445M417 675C448 675 464 637 464 562C464 523 455 462 437 381C346 413 301 460 301 521C301 554 312 587 333 620C358 657 386 675 417 675Z"/></g></g></g></svg>
