<svg style="vertical-align: -0.025ex;" xmlns="http://www.w3.org/2000/svg" width="0.801ex" height="1.025ex" viewBox="0 -442 354 453"><g stroke="currentColor" fill="currentColor" stroke-width="0" transform="scale(1,-1)"><g data-latex="\iota"><g data-latex="\iota"><path data-c="1D704" d="M141-11C179-11 219 6 261 39C303 72 324 107 324 144C324 153 319 158 308 158C300 158 295 153 292 144C273 84 215 18 143 18C129 18 122 28 122 47C122 61 130 93 146 143L180 243C209 341 223 397 223 412C223 432 212 442 191 442C172 442 159 433 151 414C140 377 133 348 130 328C121 306 112 271 101 223C101 222 87 181 87 180C78 152 56 104 56 74C56 24 91-11 141-11Z"/></g></g></g></svg>
