<svg style="vertical-align: -0.025ex;" xmlns="http://www.w3.org/2000/svg" width="1.303ex" height="1.025ex" viewBox="0 -442 576 453"><g stroke="currentColor" fill="currentColor" stroke-width="0" transform="scale(1,-1)"><g data-latex="\kappa"><g data-latex="\kappa"><path data-c="1D705" d="M515 393C515 416 496 431 471 431C452 431 432 426 409 415C380 401 346 378 307 345C256 301 217 274 190 264C202 313 214 362 225 411C225 432 214 442 193 442C170 442 156 429 150 404L59 43C56 32 55 24 55 19C55-1 66-11 87-11C127-11 131 34 140 68L145 88C148 97 152 113 158 137L180 226C287 221 341 195 341 146C341 135 334 101 334 90C334 33 372-11 429-11C486-11 525 41 546 144C546 153 541 158 530 158C522 158 516 151 513 137C492 58 465 18 431 18C412 18 403 33 403 62C403 75 406 93 411 116C414 131 416 142 416 149C416 212 356 247 235 254C254 266 281 286 314 314C357 350 391 375 418 388C417 383 416 379 416 374C416 349 430 336 457 336C487 336 515 363 515 393Z"/></g></g></g></svg>
