<svg style="vertical-align: 0;" xmlns="http://www.w3.org/2000/svg" width="1.186ex" height="1ex" viewBox="0 -442 524 442"><g stroke="currentColor" fill="currentColor" stroke-width="0" transform="scale(1,-1)"><g data-latex="\nu"><g data-latex="\nu"><path data-c="1D708" d="M142 380C142 378 141 370 138 357C110 243 81 130 53 16C53 5 60 0 73 0L87 0C188 17 281 66 366 145C405 182 438 222 464 266C504 333 524 382 524 412C524 432 513 442 492 442C470 442 456 430 449 407C420 300 372 216 306 153C250 100 193 63 134 42L229 427L229 431C226 438 220 442 212 442C179 442 106 433 93 432C78 430 70 423 70 409C70 398 79 393 97 393C116 393 142 394 142 380Z"/></g></g></g></svg>
