<svg style="vertical-align: -0.027ex;" xmlns="http://www.w3.org/2000/svg" width="1.412ex" height="1.027ex" viewBox="0 -442 624 454"><g stroke="currentColor" fill="currentColor" stroke-width="0" transform="scale(1,-1)"><g data-latex="\varkappa"><g data-latex="\varkappa"><path data-c="1D718" d="M553 66C572 105 582 132 582 146C582 155 577 160 566 160C557 160 551 153 547 139C524 62 493 24 453 25C432 26 422 42 422 73C422 113 438 166 470 233C489 272 517 320 552 377C561 385 565 395 565 407C565 428 555 439 536 439C529 439 522 437 517 432L198 144C225 203 245 259 258 313C263 332 265 349 265 364C265 416 245 442 204 442C159 442 124 417 99 367C80 328 70 301 70 287C70 278 75 273 86 273C95 273 101 280 105 294C127 371 158 410 199 409C220 408 230 392 230 361C230 320 211 260 173 181C148 130 124 88 101 56C88 44 81 31 81 16C81-3 89-12 105-12C115-12 125-8 135 1C198 50 303 143 451 282C426 226 407 172 394 120C389 100 387 83 387 69C387 17 407-9 448-9C493-9 528 16 553 66Z"/></g></g></g></svg>
