<svg style="vertical-align: -0.489ex;" xmlns="http://www.w3.org/2000/svg" width="1.364ex" height="1.489ex" viewBox="0 -442 603 658"><g stroke="currentColor" fill="currentColor" stroke-width="0" transform="scale(1,-1)"><g data-latex="\mu"><g data-latex="\mu"><path data-c="1D707" d="M572 142C572 151 567 156 556 156C548 156 542 149 539 136C519 56 495 16 468 16C451 16 442 30 442 58C442 75 448 109 461 159L489 266C498 302 506 327 512 358L518 386C520 393 521 398 521 400C521 421 510 431 488 431C466 431 452 419 446 394L374 108C374 97 358 77 326 47C304 26 279 16 250 16C204 16 181 43 181 98C181 117 185 144 194 181L236 347C244 378 249 400 251 411C251 432 240 442 218 442C196 442 182 429 175 403L33-169C31-177 30-182 30-185C30-206 41-216 62-216C77-216 89-208 100-193C103-186 120-117 153 14C177-4 208-13 246-13C305-13 344 18 375 54C386 17 419-13 466-13C535-13 556 68 572 142Z"/></g></g></g></svg>
