<svg style="vertical-align: -0.464ex;" xmlns="http://www.w3.org/2000/svg" width="1.348ex" height="2.034ex" viewBox="0 -694 596 899"><g stroke="currentColor" fill="currentColor" stroke-width="0" transform="scale(1,-1)"><g data-latex="\phi"><g data-latex="\phi"><path data-c="1D719" d="M385 445C404 524 424 601 442 680L442 683C439 690 434 694 426 694C417 694 411 686 408 671L351 445C276 442 208 414 147 362C82 307 49 243 49 170C49 62 132-7 237-13C218-92 204-149 195-183C194-186 194-189 194-190C194-200 199-205 210-205C221-205 224-199 227-187L271-14C346-11 414 17 475 69C540 125 573 189 573 262C573 369 488 436 385 445M377 415C453 410 501 363 501 283C501 243 492 203 474 164C442 92 369 26 278 17M121 149C121 189 130 229 148 268C180 340 253 405 343 415L244 16C169 22 121 69 121 149Z"/></g></g></g></svg>
