<svg style="vertical-align: -0.025ex;" xmlns="http://www.w3.org/2000/svg" width="1.097ex" height="1.025ex" viewBox="0 -442 485 453"><g stroke="currentColor" fill="currentColor" stroke-width="0" transform="scale(1,-1)"><g data-latex="\omicron"><g data-latex="\omicron"><path data-c="1D70A" d="M308 442C239 442 176 412 122 353C68 294 41 229 41 159C41 63 106-11 202-11C272-11 334 19 388 78C442 137 469 201 469 272C469 369 405 442 308 442M389 310C389 287 384 255 374 213C353 130 319 73 272 42C248 26 225 18 203 18C149 18 121 65 121 122C121 180 155 288 178 324C216 383 259 413 307 413C361 413 389 367 389 310Z"/></g></g></g></svg>
