<svg style="vertical-align: -0.464ex;" xmlns="http://www.w3.org/2000/svg" width="1.473ex" height="2.034ex" viewBox="0 -694 651 899"><g stroke="currentColor" fill="currentColor" stroke-width="0" transform="scale(1,-1)"><g data-latex="\psi"><g data-latex="\psi"><path data-c="1D713" d="M534 393C534 384 539 374 550 363C573 341 585 314 585 282C585 253 576 222 557 187C522 120 476 72 421 43C388 26 355 18 322 17L484 663C486 672 487 677 487 679C487 689 482 694 471 694C466 694 463 693 460 691C456 683 454 676 453 671L290 19C219 28 184 64 184 126C184 153 202 214 237 309C244 329 248 346 248 359C248 409 213 444 163 444C118 444 84 419 59 369C39 329 29 302 29 288C29 279 34 274 45 274C58 274 60 280 64 294C87 374 119 414 160 414C174 414 181 405 181 387C181 371 174 343 159 303C127 218 111 162 111 134C111 47 168-1 282-10C274-45 267-74 261-96C246-153 238-185 238-192C241-200 242-205 255-205L265-201C271-185 276-170 279-157L315-13C397-12 469 24 531 95C564 132 588 172 604 215C625 270 635 322 635 371C635 420 619 444 588 444C562 444 534 419 534 393Z"/></g></g></g></svg>
