<svg style="vertical-align: -0.025ex;" xmlns="http://www.w3.org/2000/svg" width="1.407ex" height="1.025ex" viewBox="0 -442 622 453"><g stroke="currentColor" fill="currentColor" stroke-width="0" transform="scale(1,-1)"><g data-latex="\omega"><g data-latex="\omega"><path data-c="1D714" d="M505 391C505 380 509 370 517 363C542 342 554 314 554 280C554 267 553 255 550 244C530 168 477 68 396 68C344 68 313 96 303 152C316 179 326 207 333 238C336 249 337 258 337 264C337 284 329 294 314 294C276 294 266 198 264 156C227 97 184 68 133 68C78 68 51 104 51 175C51 195 54 216 59 238C70 282 99 337 146 402C150 407 152 412 152 417C152 430 145 437 130 437C123 437 116 434 110 427C61 360 13 242 13 133C13 37 49-11 121-11C178-11 227 22 270 87C284 22 322-11 383-11C416-11 447 2 475 28C522 72 557 142 581 238C596 299 604 342 604 369C604 398 597 419 583 432C576 439 567 442 558 442C532 442 505 417 505 391Z"/></g></g></g></svg>
