<svg style="vertical-align: -0.025ex;" xmlns="http://www.w3.org/2000/svg" width="1.873ex" height="1ex" viewBox="0 -431 828 442"><g stroke="currentColor" fill="currentColor" stroke-width="0" transform="scale(1,-1)"><g data-latex="\varpi"><g data-latex="\varpi"><path data-c="1D71B" d="M773 431L194 431C153 431 118 415 88 384C79 374 69 361 57 345C37 317 27 299 27 292C31 285 31 279 43 279C50 279 56 284 62 293C77 317 96 336 119 349C151 368 157 366 211 366C145 282 112 196 112 107C112 28 142-11 203-11C282-11 352 39 412 140L412 127C412 35 448-11 519-11C599-11 660 51 694 107C735 177 756 240 756 297C756 320 753 343 746 366C772 366 787 367 792 368C809 375 817 387 817 403C817 426 799 431 773 431M712 366C719 344 723 321 723 297C723 243 704 190 667 139C627 82 581 54 529 54C478 54 452 91 452 164C452 193 456 226 464 263L467 276C468 279 468 281 469 283C469 292 464 296 453 296C444 296 438 292 436 283C405 180 328 54 213 54C171 54 150 82 150 139C150 210 184 285 252 366Z"/></g></g></g></svg>
