<svg style="vertical-align: -0.489ex;" xmlns="http://www.w3.org/2000/svg" width="1.17ex" height="1.489ex" viewBox="0 -442 517 658"><g stroke="currentColor" fill="currentColor" stroke-width="0" transform="scale(1,-1)"><g data-latex="\rho"><g data-latex="\rho"><path data-c="1D70C" d="M361 442C248 442 154 320 129 220L33-169C31-177 30-182 30-185C30-206 40-216 61-216C76-216 89-208 99-193L160 46C183 7 215-13 256-13C322-13 380 19 431 84C478 145 502 210 502 277C502 368 449 442 361 442M359 412C402 412 423 381 423 319C423 292 417 257 406 212C384 127 353 70 314 40C293 24 274 16 255 16C236 16 219 23 206 36C185 57 175 79 175 100C176 107 178 119 182 136C205 231 225 292 241 320C276 381 315 412 359 412Z"/></g></g></g></svg>
