<svg style="vertical-align: -0.05ex;" xmlns="http://www.w3.org/2000/svg" width="1.76ex" height="1.645ex" viewBox="0 -705 778 727"><g stroke="currentColor" fill="currentColor" stroke-width="0" transform="scale(1,-1)"><g data-latex="\Theta"><g data-latex="\Theta"><path data-c="398" d="M388-22C484-22 564 15 628 88C690 158 721 242 721 339C721 436 690 521 629 592C564 667 484 705 388 705C292 705 212 667 148 592C87 521 56 436 56 339C56 242 87 159 148 88C213 15 293-22 388-22M538 601C591 544 617 457 617 339C617 244 599 169 563 114C517 44 459 9 389 9C336 9 286 33 239 80C186 135 160 221 160 339C160 460 186 547 239 602C286 651 335 675 388 675C442 675 492 650 538 601M536 267L569 267L569 417L536 417L536 384L241 384L241 417L208 417L208 267L241 267L241 300L536 300Z"/></g></g></g></svg>
