<svg style="vertical-align: -0.439ex;" xmlns="http://www.w3.org/2000/svg" width="1.17ex" height="1.439ex" viewBox="0 -442 517 636"><g stroke="currentColor" fill="currentColor" stroke-width="0" transform="scale(1,-1)"><g data-latex="\varrho"><g data-latex="\varrho"><path data-c="1D71A" d="M362 442C311 442 264 421 221 378C165 322 142 271 119 178C89 61 74-24 74-75C74-154 128-175 215-175C233-175 293-171 311-171C328-171 351-170 352-179C353-189 359-194 368-194C380-194 386-183 386-162C386-137 373-122 348-117C327-112 291-110 241-110L192-110C160-109 139-104 130-97C117-86 111-70 111-48C111-20 118 23 131 81C152 18 194-13 256-13C322-13 380 19 431 84C478 145 502 209 502 277C502 368 449 442 362 442M360 412C402 412 423 381 423 320C423 293 417 257 406 212C384 128 354 71 315 40C294 24 275 16 256 16C211 16 188 49 188 116C188 179 218 279 241 321C276 382 315 412 360 412Z"/></g></g></g></svg>
