<svg style="vertical-align: 0;" xmlns="http://www.w3.org/2000/svg" width="1.57ex" height="1.62ex" viewBox="0 -716 694 716"><g stroke="currentColor" fill="currentColor" stroke-width="0" transform="scale(1,-1)"><g data-latex="\Lambda"><g data-latex="\Lambda"><path data-c="39B" d="M535 3L661 0L661 39C623 39 600 41 592 45C584 49 577 60 571 78L373 692C368 708 360 716 347 716C334 716 326 708 321 692L131 104C117 61 84 39 32 39L32 0L128 3L243 0L243 38C192 39 167 55 167 86C167 90 169 97 172 107L316 556L469 81C472 71 473 65 473 64C473 47 445 39 389 39L389 0C431 3 480 4 535 3Z"/></g></g></g></svg>
