<svg style="vertical-align: -0.025ex;" xmlns="http://www.w3.org/2000/svg" width="1.292ex" height="1ex" viewBox="0 -431 571 442"><g stroke="currentColor" fill="currentColor" stroke-width="0" transform="scale(1,-1)"><g data-latex="\sigma"><g data-latex="\sigma"><path data-c="1D70E" d="M525 431L300 431C252 431 207 416 166 385C102 336 38 250 38 148C38 58 100-11 190-11C257-11 317 18 368 76C417 132 441 194 441 263C441 304 432 338 414 366L515 366C550 366 567 378 567 403C567 426 550 431 525 431M107 121C107 180 121 234 150 282C184 338 228 366 283 366C341 366 370 336 370 275C370 250 365 221 355 187C335 116 302 66 256 39C233 25 211 18 191 18C136 18 107 63 107 121Z"/></g></g></g></svg>
