<svg style="vertical-align: -0.244ex;" xmlns="http://www.w3.org/2000/svg" width="0.925ex" height="1.244ex" viewBox="0 -442 409 550"><g stroke="currentColor" fill="currentColor" stroke-width="0" transform="scale(1,-1)"><g data-latex="\varsigma"><g data-latex="\varsigma"><path data-c="1D70D" d="M304 442C237 442 176 421 121 379C61 334 31 279 31 214C31 134 81 101 137 70L229 19C249 7 265 0 265-30C265-54 248-78 224-78C211-78 198-75 185-70C182-69 178-68 175-68C165-68 160-72 160-81C160-99 206-108 224-108C280-108 328-54 328 2C328 29 317 51 296 68C289 74 266 87 229 108C190 130 168 142 165 144C126 167 90 186 90 245C90 292 113 333 160 367C203 397 249 412 298 412C321 412 345 406 372 394C381 390 387 388 388 388C402 388 409 395 409 408C409 437 336 442 304 442Z"/></g></g></g></svg>
