<svg style="vertical-align: -0.027ex;" xmlns="http://www.w3.org/2000/svg" width="1.156ex" height="1.002ex" viewBox="0 -431 511 443"><g stroke="currentColor" fill="currentColor" stroke-width="0" transform="scale(1,-1)"><g data-latex="\tau"><g data-latex="\tau"><path data-c="1D70F" d="M468 431L192 431C139 431 91 397 47 330C34 310 27 297 27 292C30 284 31 279 43 279C50 279 56 283 62 292C94 341 134 366 183 366L260 366L165 56C158 34 155 21 155 18C155-2 166-12 187-12C198-12 208-9 214-3C227 9 228 12 232 33L297 366L459 366C494 366 511 378 511 403C511 426 493 431 468 431Z"/></g></g></g></svg>
