<svg style="vertical-align: -0.025ex;" xmlns="http://www.w3.org/2000/svg" width="1.222ex" height="1.025ex" viewBox="0 -442 540 453"><g stroke="currentColor" fill="currentColor" stroke-width="0" transform="scale(1,-1)"><g data-latex="\upsilon"><g data-latex="\upsilon"><path data-c="1D710" d="M424 391C424 382 429 372 440 362C463 340 474 313 474 281C474 243 456 191 419 126C391 78 338 18 273 18C212 18 181 49 181 111C181 147 199 213 236 310C243 329 247 345 247 357C247 407 213 442 163 442C118 442 83 417 58 367C39 328 29 301 29 287C29 278 34 273 45 273C59 273 60 279 64 294C87 373 119 413 160 413C174 413 181 404 181 385C181 369 173 341 158 302C125 215 109 155 109 123C109 31 179-11 270-11C336-11 394 28 444 107C464 139 481 177 494 221C514 285 524 334 524 369C524 418 508 442 477 442C452 442 424 416 424 391Z"/></g></g></g></svg>
