<svg style="vertical-align: 0;" xmlns="http://www.w3.org/2000/svg" width="1.633ex" height="1.545ex" viewBox="0 -683 722 683"><g stroke="currentColor" fill="currentColor" stroke-width="0" transform="scale(1,-1)"><g data-latex="\Phi"><g data-latex="\Phi"><path data-c="3A6" d="M402 134C467 139 524 159 575 192C635 232 665 282 665 341C665 400 635 450 575 490C524 524 467 544 402 549L402 601C402 614 403 622 406 627C411 638 439 644 492 644L529 644L529 683C502 681 445 680 358 680C270 680 213 681 186 683L186 644L223 644C276 644 305 639 310 628C312 623 313 614 313 601L313 549C249 542 193 522 144 489C85 450 56 401 56 342C56 283 85 234 143 194C192 161 249 141 313 134L313 82C313 69 312 61 310 56C305 45 276 39 223 39L186 39L186 0C213 2 270 3 357 3C445 3 502 2 529 0L529 39L492 39C439 39 411 44 406 55C403 60 402 69 402 82M402 519C506 506 558 447 558 342C558 237 506 178 402 164M313 518L313 165C213 180 163 238 163 341C163 444 213 503 313 518Z"/></g></g></g></svg>
