<svg style="vertical-align: 0;" xmlns="http://www.w3.org/2000/svg" width="1.76ex" height="1.545ex" viewBox="0 -683 778 683"><g stroke="currentColor" fill="currentColor" stroke-width="0" transform="scale(1,-1)"><g data-latex="\Psi"><g data-latex="\Psi"><path data-c="3A8" d="M341 134L341 82C341 69 340 61 337 56C332 45 304 39 251 39L214 39L214 0C241 2 298 3 385 3C473 3 530 2 557 0L557 39L520 39C467 39 439 44 434 55C431 60 430 69 430 82L430 134C579 153 653 248 653 419C653 432 655 451 660 476C665 506 680 523 704 526C715 527 720 532 720 541C720 550 711 555 692 555L655 555C635 555 619 551 606 544C578 526 564 478 563 401C562 269 517 191 430 167L430 601C430 614 431 622 434 627C439 638 467 644 520 644L557 644L557 683C530 681 473 680 386 680C298 680 241 681 214 683L214 644L251 644C304 644 332 639 337 628C340 623 341 614 341 601L341 167C256 192 214 274 214 413C214 508 183 555 122 555L86 555C67 555 57 550 57 541C57 533 61 528 69 526C81 525 90 521 97 516C115 502 124 462 124 395C124 248 209 153 341 134Z"/></g></g></g></svg>
