<svg style="vertical-align: 0;" xmlns="http://www.w3.org/2000/svg" width="1.414ex" height="1.538ex" viewBox="0 -680 625 680"><g stroke="currentColor" fill="currentColor" stroke-width="0" transform="scale(1,-1)"><g data-latex="\Gamma"><g data-latex="\Gamma"><path data-c="393" d="M274 641L376 641C443 641 487 626 509 596C538 555 541 520 550 450L583 450L554 680L33 680L33 641L61 641C96 641 117 639 124 634C131 629 135 617 135 599L135 81C135 63 131 51 124 46C117 41 96 39 61 39L33 39L33 0C59 2 110 3 187 3C274 3 330 2 356 0L356 39L320 39C267 39 238 44 233 55C231 60 230 69 230 82L230 606C230 641 236 641 274 641Z"/></g></g></g></svg>
