<svg style="vertical-align: 0;" xmlns="http://www.w3.org/2000/svg" width="1.509ex" height="1.532ex" viewBox="0 -677 667 677"><g stroke="currentColor" fill="currentColor" stroke-width="0" transform="scale(1,-1)"><g data-latex="\Xi"><g data-latex="\Xi"><path data-c="39E" d="M587 515L619 515L611 677L55 677L47 515L79 515C81 560 85 586 91 594C94 598 117 600 162 600L504 600C549 600 572 598 575 594C581 586 585 560 587 515M496 263L528 263L528 441L496 441L496 390L170 390L170 441L138 441L138 263L170 263L170 313L496 313M616 0L624 173L592 173C589 123 585 95 581 88C577 81 552 77 505 77L161 77C114 77 89 80 86 85C80 94 76 123 74 173L42 173L50 0Z"/></g></g></g></svg>
