<svg style="vertical-align: 0;" xmlns="http://www.w3.org/2000/svg" width="1.697ex" height="1.538ex" viewBox="0 -680 750 680"><g stroke="currentColor" fill="currentColor" stroke-width="0" transform="scale(1,-1)"><g data-latex="\Pi"><g data-latex="\Pi"><path data-c="3A0" d="M566 3C640 3 690 2 716 0L716 39L688 39C653 39 632 41 625 46C618 51 614 63 614 81L614 599C614 617 618 629 625 634C632 639 653 641 688 641L716 641L716 680L33 680L33 641L61 641C96 641 117 639 124 634C131 629 135 617 135 599L135 81C135 63 131 51 124 46C117 41 96 39 61 39L33 39L33 0C59 2 109 3 182 3C257 3 307 2 332 0L332 39L305 39C270 39 249 41 242 46C235 51 231 63 231 81L231 641L518 641L518 81C518 63 514 51 507 46C500 41 479 39 444 39L417 39L417 0C442 2 492 3 566 3Z"/></g></g></g></svg>
