<svg style="vertical-align: 0;" xmlns="http://www.w3.org/2000/svg" width="1.633ex" height="1.545ex" viewBox="0 -683 722 683"><g stroke="currentColor" fill="currentColor" stroke-width="0" transform="scale(1,-1)"><g data-latex="\Sigma"><g data-latex="\Sigma"><path data-c="3A3" d="M56 655L301 299L68 33C61 25 57 19 57 15C57 5 67 0 86 0L637 0L665 241L633 241C624 159 601 107 566 84C531 61 474 49 397 49L133 49L375 324C382 331 385 337 385 342C385 345 382 351 377 358L179 644L399 644C482 644 539 632 570 607C601 582 622 531 633 453L666 453L637 683L86 683C62 683 56 681 56 655Z"/></g></g></g></svg>
