<svg style="vertical-align: -0.023ex;" xmlns="http://www.w3.org/2000/svg" width="2.262ex" height="1.176ex" viewBox="0 -510 1000 520"><g stroke="currentColor" fill="currentColor" stroke-width="0" transform="scale(1,-1)"><g data-latex="\leftarrow"><g data-latex="\leftarrow"><path data-c="2190" d="M918 274L172 274C245 326 289 395 306 482L306 483L307 485C307 502 299 510 283 510C270 510 262 504 259 491C250 444 231 403 203 368C161 316 116 282 68 266C61 263 57 257 57 250C57 243 61 237 68 234C116 218 161 184 203 132C231 97 250 56 259 9C262-4 270-10 283-10C299-10 307-2 307 15L306 17L306 18C289 105 245 174 172 226L918 226C934 226 942 234 942 250C942 263 931 274 918 274Z"/></g></g></g></svg>
