<svg style="vertical-align: -0.023ex;" xmlns="http://www.w3.org/2000/svg" width="2.262ex" height="1.176ex" viewBox="0 -510 1000 520"><g stroke="currentColor" fill="currentColor" stroke-width="0" transform="scale(1,-1)"><g data-latex="\rightarrow"><g data-latex="\rightarrow"><path data-c="2192" d="M932 234C939 237 943 243 943 250C943 257 939 263 932 266C884 282 839 316 797 368C769 403 750 444 741 491C738 504 730 510 717 510C701 510 693 502 693 485L694 483L694 482C711 395 755 326 828 274L82 274C66 274 58 266 58 250C58 234 66 226 82 226L828 226C755 174 711 105 694 18L694 17L693 15C693-2 701-10 717-10C730-10 738-4 741 9C750 56 769 97 797 132C839 184 884 218 932 234Z"/></g></g></g></svg>
