<svg style="vertical-align: -0.023ex;" xmlns="http://www.w3.org/2000/svg" width="2.262ex" height="1.176ex" viewBox="0 -510 1000 520"><g stroke="currentColor" fill="currentColor" stroke-width="0" transform="scale(1,-1)"><g data-latex="\leftrightarrow"><g data-latex="\leftrightarrow"><path data-c="2194" d="M931 234C938 237 942 243 942 250C942 257 938 263 931 266C883 282 838 316 796 368C768 403 749 444 740 491C737 504 729 510 716 510C700 510 692 502 692 486L692 483L693 481C710 395 754 326 827 274L173 274C246 326 290 395 307 481L308 483L308 486C308 502 300 510 284 510C271 510 263 504 260 491C251 444 232 403 204 368C162 316 117 282 69 266C62 263 58 257 58 250C58 243 62 237 69 234C117 218 162 184 204 132C232 97 251 56 260 9C263-4 271-10 284-10C300-10 308-2 308 14L308 17L307 19C290 105 246 174 173 226L827 226C754 174 710 105 693 19L692 17L692 14C692-2 700-10 716-10C729-10 737-4 740 9C749 56 768 97 796 132C838 184 883 218 931 234Z"/></g></g></g></svg>
