<svg style="vertical-align: -0.045ex;" xmlns="http://www.w3.org/2000/svg" width="2.262ex" height="1.222ex" viewBox="0 -520 1000 540"><g stroke="currentColor" fill="currentColor" stroke-width="0" transform="scale(1,-1)"><g data-latex="\Leftarrow"><g data-latex="\Leftarrow"><path data-c="21D0" d="M916 178L272 178C235 208 194 232 151 250C194 268 235 292 272 322L916 322C932 322 940 330 940 346C940 361 932 369 916 369L324 369C356 403 384 442 407 486C408 491 409 494 409 496C409 512 401 520 385 520C375 520 368 516 364 507C338 455 303 410 258 371C196 318 134 283 73 267C65 263 61 257 61 250C61 243 65 237 73 233C134 217 196 182 258 129C303 90 338 45 364-7C368-16 375-20 385-20C401-20 409-12 409 4C409 6 408 9 407 14C384 58 356 97 324 131L916 131C932 131 940 139 940 154C940 167 929 178 916 178Z"/></g></g></g></svg>
