<svg style="vertical-align: -0.045ex;" xmlns="http://www.w3.org/2000/svg" width="2.262ex" height="1.222ex" viewBox="0 -520 1000 540"><g stroke="currentColor" fill="currentColor" stroke-width="0" transform="scale(1,-1)"><g data-latex="\Rightarrow"><g data-latex="\Rightarrow"><path data-c="21D2" d="M927 233C935 237 939 243 939 250C939 257 935 263 927 267C866 283 804 318 742 371C697 410 662 455 636 507C632 516 625 520 615 520C599 520 591 512 591 496C591 494 592 491 593 486C616 442 644 403 676 369L84 369C68 369 60 361 60 346C60 330 68 322 84 322L728 322C765 292 806 268 849 250C806 232 765 208 728 178L84 178C68 178 60 170 60 154C60 139 68 131 84 131L676 131C644 97 616 58 593 14C592 9 591 6 591 4C591-12 599-20 615-20C625-20 632-16 636-7C662 45 697 90 742 129C804 182 866 217 927 233Z"/></g></g></g></svg>
