<svg style="vertical-align: -0.045ex;" xmlns="http://www.w3.org/2000/svg" width="2.262ex" height="1.222ex" viewBox="0 -520 1000 540"><g stroke="currentColor" fill="currentColor" stroke-width="0" transform="scale(1,-1)"><g data-latex="\Leftrightarrow"><g data-latex="\Leftrightarrow"><path data-c="21D4" d="M965 233C974 236 978 241 978 250C978 259 974 264 965 267C904 284 842 318 781 371C737 410 702 455 675 507C670 516 663 520 654 520C638 520 630 512 630 496C630 494 631 491 632 486C655 442 683 403 715 369L285 369C317 403 345 442 368 486C369 491 370 494 370 496C370 512 362 520 346 520C337 520 330 516 325 507C298 455 263 410 219 371C158 318 96 284 35 267C26 264 22 259 22 250C22 241 26 236 35 233C96 216 158 182 219 129C263 90 298 45 325-7C330-16 337-20 346-20C362-20 370-12 370 4C370 6 369 9 368 14C345 58 317 97 285 131L715 131C683 97 655 58 632 14C631 9 630 6 630 4C630-12 638-20 654-20C663-20 670-16 675-7C702 45 737 90 781 129C842 182 904 216 965 233M766 322C802 293 842 269 887 250C842 231 802 207 766 178L234 178C198 207 158 231 113 250C158 269 198 293 234 322Z"/></g></g></g></svg>
