<svg style="vertical-align: -0.025ex;" xmlns="http://www.w3.org/2000/svg" width="2.21ex" height="1.179ex" viewBox="0 -510 977 521"><g stroke="currentColor" fill="currentColor" stroke-width="0" transform="scale(1,-1)"><g data-latex="\mapsto"><g data-latex="\mapsto"><path data-c="21A6" d="M910 234C917 237 921 243 921 250C921 257 917 263 910 266C862 282 817 316 775 368C747 403 728 444 719 491C716 504 708 510 695 510C679 510 671 502 671 485L672 483L672 482C689 395 733 326 806 274L104 274L104 486C104 502 96 510 80 510C64 510 56 502 56 486L56 14C56-3 64-11 80-11C96-11 104-3 104 14L104 226L806 226C733 174 689 105 672 18L672 17L671 15C671-2 679-10 695-10C708-10 716-4 719 9C728 56 747 97 775 132C817 184 862 218 910 234Z"/></g></g></g></svg>
