<svg style="vertical-align: -0.023ex;" xmlns="http://www.w3.org/2000/svg" width="3.31ex" height="1.176ex" viewBox="0 -510 1463 520"><g stroke="currentColor" fill="currentColor" stroke-width="0" transform="scale(1,-1)"><g data-latex="\longleftarrow"><g data-latex="\longleftarrow"><path data-c="27F5" d="M1383 274L171 274C244 326 288 395 305 481L307 483L307 486C307 502 299 510 283 510C270 510 262 504 259 491C250 444 231 403 202 368C161 316 116 282 67 266C60 263 56 257 56 250C56 243 60 237 67 234C116 218 161 184 202 132C231 97 250 56 259 9C262-4 270-10 283-10C299-10 307-2 307 14L307 17L305 19C288 105 244 174 171 226L1383 226C1399 226 1407 234 1407 250C1407 263 1396 274 1383 274Z"/></g></g></g></svg>
