<svg style="vertical-align: -0.023ex;" xmlns="http://www.w3.org/2000/svg" width="3.262ex" height="1.176ex" viewBox="0 -510 1442 520"><g stroke="currentColor" fill="currentColor" stroke-width="0" transform="scale(1,-1)"><g data-latex="\longleftrightarrow"><g data-latex="\longleftrightarrow"><path data-c="27F7" d="M1375 234C1382 237 1386 243 1386 250C1386 257 1382 263 1375 266C1326 282 1281 316 1240 368C1211 403 1192 444 1183 491C1180 504 1172 510 1159 510C1144 510 1136 502 1136 486L1136 483L1137 481C1154 395 1198 326 1271 274L171 274C244 326 288 395 305 481L306 483L306 486C306 502 298 510 283 510C270 510 262 504 259 491C250 444 231 403 202 368C161 316 116 282 67 266C60 263 56 257 56 250C56 243 60 237 67 234C116 218 161 184 202 132C231 97 250 56 259 9C262-4 270-10 283-10C298-10 306-2 306 14L306 17L305 19C288 105 244 174 171 226L1271 226C1198 174 1154 105 1137 19L1136 17L1136 14C1136-2 1144-10 1159-10C1172-10 1180-4 1183 9C1192 56 1211 97 1240 132C1281 184 1326 218 1375 234Z"/></g></g></g></svg>
