<svg style="vertical-align: -0.023ex;" xmlns="http://www.w3.org/2000/svg" width="3.31ex" height="1.176ex" viewBox="0 -510 1463 520"><g stroke="currentColor" fill="currentColor" stroke-width="0" transform="scale(1,-1)"><g data-latex="\longrightarrow"><g data-latex="\longrightarrow"><path data-c="27F6" d="M1396 234C1403 237 1407 243 1407 250C1407 257 1403 263 1396 266C1347 282 1302 316 1261 368C1232 403 1213 444 1204 491C1201 504 1193 510 1180 510C1164 510 1156 502 1156 485L1157 483L1157 482C1174 395 1219 326 1292 274L80 274C64 274 56 266 56 250C56 234 64 226 80 226L1292 226C1219 174 1174 105 1157 18L1157 17L1156 15C1156-2 1164-10 1180-10C1193-10 1201-4 1204 9C1213 56 1232 97 1261 132C1302 184 1347 218 1396 234Z"/></g></g></g></svg>
