<svg style="vertical-align: -0.045ex;" xmlns="http://www.w3.org/2000/svg" width="3.296ex" height="1.222ex" viewBox="0 -520 1457 540"><g stroke="currentColor" fill="currentColor" stroke-width="0" transform="scale(1,-1)"><g data-latex="\Longleftarrow"><g data-latex="\Longleftarrow"><path data-c="27F8" d="M1377 178L268 178C230 208 189 232 146 250C189 268 230 292 268 322L1377 322C1393 322 1401 330 1401 346C1401 361 1393 369 1377 369L320 369C352 403 380 442 403 486C404 491 405 494 405 496C405 512 397 520 381 520C371 520 364 516 360 507C333 455 298 410 253 371C192 318 130 283 68 267C60 263 56 257 56 250C56 243 60 237 68 233C130 217 192 182 253 129C298 90 333 45 360-7C364-16 371-20 381-20C397-20 405-12 405 4C405 6 404 9 403 14C380 58 352 97 320 131L1377 131C1393 131 1401 139 1401 154C1401 167 1390 178 1377 178Z"/></g></g></g></svg>
