<svg style="vertical-align: -0.484ex;" xmlns="http://www.w3.org/2000/svg" width="2.262ex" height="2.075ex" viewBox="0 -703 1000 917"><g stroke="currentColor" fill="currentColor" stroke-width="0" transform="scale(1,-1)"><g data-latex="\searrow"><g data-latex="\searrow"><path data-c="2198" d="M955 133C958 138 959 142 959 147C959 163 951 171 935 171C926 171 920 167 915 160C876 102 857 39 857-30C857-48 859-66 862-83L83 696C80 701 74 703 66 703C50 703 42 695 42 679C42 673 44 668 49 663L828-117C811-114 793-112 775-112C706-112 643-131 585-170C578-175 574-181 574-190C574-206 582-214 598-214C603-214 607-213 612-210C662-176 721-159 789-159C834-159 873-168 907-185C908-186 911-186 914-186C925-186 931-180 931-169C931-166 931-163 930-162C913-128 904-89 904-44C904 24 921 83 955 133Z"/></g></g></g></svg>
