<svg style="vertical-align: -0.025ex;" xmlns="http://www.w3.org/2000/svg" width="3.265ex" height="1.179ex" viewBox="0 -510 1443 521"><g stroke="currentColor" fill="currentColor" stroke-width="0" transform="scale(1,-1)"><g data-latex="\longmapsto"><g data-latex="\longmapsto"><path data-c="27FC" d="M1375 234C1383 237 1387 243 1387 250C1387 257 1383 263 1375 266C1327 282 1282 316 1241 368C1212 403 1193 444 1184 491C1181 504 1173 510 1160 510C1144 510 1136 502 1136 485L1137 483L1137 482C1154 395 1199 326 1272 274L104 274L104 486C104 502 96 510 80 510C64 510 56 502 56 486L56 14C56-3 64-11 80-11C96-11 104-3 104 14L104 226L1272 226C1199 174 1154 105 1137 18L1137 17L1136 15C1136-2 1144-10 1160-10C1173-10 1181-4 1184 9C1193 56 1212 97 1241 132C1282 184 1327 218 1375 234Z"/></g></g></g></svg>
