<svg style="vertical-align: -0.459ex;" xmlns="http://www.w3.org/2000/svg" width="1.131ex" height="1.995ex" viewBox="0 -679 500 882"><g stroke="currentColor" fill="currentColor" stroke-width="0" transform="scale(1,-1)"><g data-latex="\uparrow"><g data-latex="\uparrow"><path data-c="2191" d="M456 415C472 415 480 423 480 439C480 451 474 459 463 462C420 475 383 497 351 528C306 573 278 619 267 666C265 675 259 679 250 679C241 679 235 675 233 666C222 619 194 573 149 528C117 497 80 475 37 462C26 459 20 451 20 439C20 423 28 415 44 415C47 415 49 416 51 417C123 438 181 482 226 548L226-179C226-195 234-203 250-203C266-203 274-195 274-179L274 548C319 482 377 438 449 417C451 416 453 415 456 415Z"/></g></g></g></svg>
