<svg style="vertical-align: -0.581ex;" xmlns="http://www.w3.org/2000/svg" width="1.131ex" height="2.294ex" viewBox="0 -757 500 1014"><g stroke="currentColor" fill="currentColor" stroke-width="0" transform="scale(1,-1)"><g data-latex="\updownarrow"><g data-latex="\updownarrow"><path data-c="2195" d="M463-40C474-37 480-29 480-17C480-1 472 7 456 7C453 7 451 7 449 6C377-16 319-60 274-126L274 626C319 560 377 516 449 494C451 493 453 493 456 493C472 493 480 501 480 517C480 529 474 537 463 540C420 553 383 575 351 606C306 651 278 697 267 744C265 753 259 757 250 757C241 757 235 753 233 744C222 697 194 651 149 606C117 575 80 553 37 540C26 537 20 529 20 517C20 501 28 493 44 493C47 493 49 493 51 494C123 516 181 560 226 626L226-126C181-60 123-16 51 6C49 7 47 7 44 7C28 7 20-1 20-17C20-29 26-37 37-40C80-53 117-75 149-106C194-151 222-197 233-244C235-253 241-257 250-257C259-257 265-253 267-244C278-197 306-151 351-106C383-75 420-53 463-40Z"/></g></g></g></svg>
