<svg style="vertical-align: -0.459ex;" xmlns="http://www.w3.org/2000/svg" width="1.382ex" height="1.989ex" viewBox="0 -676 611 879"><g stroke="currentColor" fill="currentColor" stroke-width="0" transform="scale(1,-1)"><g data-latex="\Uparrow"><g data-latex="\Uparrow"><path data-c="21D1" d="M552 328C568 328 576 336 576 352C576 362 572 369 563 373C511 399 466 434 427 479C374 541 339 603 323 664C319 672 313 676 306 676C299 676 293 672 289 664C273 603 238 541 185 479C146 434 101 399 49 373C40 369 36 362 36 352C36 336 44 328 60 328C62 328 65 329 70 330C114 353 153 381 187 413L187-179C187-195 195-203 210-203C226-203 234-195 234-179L234 465C264 502 288 543 306 586C324 543 348 502 378 465L378-179C378-195 386-203 402-203C417-203 425-195 425-179L425 413C459 381 498 353 542 330C547 329 550 328 552 328Z"/></g></g></g></svg>
