<svg style="vertical-align: -0.398ex;" xmlns="http://www.w3.org/2000/svg" width="1.382ex" height="1.989ex" viewBox="0 -703 611 879"><g stroke="currentColor" fill="currentColor" stroke-width="0" transform="scale(1,-1)"><g data-latex="\Downarrow"><g data-latex="\Downarrow"><path data-c="21D3" d="M563 127C572 131 576 138 576 148C576 164 568 172 552 172C550 172 547 171 542 170C498 147 459 119 425 87L425 679C425 695 417 703 402 703C386 703 378 695 378 679L378 35C348-2 324-43 306-86C288-43 264-2 234 35L234 679C234 695 226 703 210 703C195 703 187 695 187 679L187 87C153 119 114 147 70 170C65 171 62 172 60 172C44 172 36 164 36 148C36 138 40 131 49 127C101 101 146 66 185 21C238-41 273-103 289-164C293-172 299-176 306-176C313-176 319-172 323-164C339-103 374-41 427 21C466 66 511 101 563 127Z"/></g></g></g></svg>
