<svg style="vertical-align: -0.516ex;" xmlns="http://www.w3.org/2000/svg" width="1.382ex" height="2.163ex" viewBox="0 -728 611 956"><g stroke="currentColor" fill="currentColor" stroke-width="0" transform="scale(1,-1)"><g data-latex="\Updownarrow"><g data-latex="\Updownarrow"><path data-c="21D5" d="M563 75C572 80 576 87 576 96C576 112 568 120 552 120C550 120 547 119 542 118C498 95 459 67 425 35L425 465C459 433 498 405 542 382C547 381 550 380 552 380C568 380 576 388 576 404C576 413 572 420 563 425C511 452 466 487 427 531C374 592 340 654 323 715C320 724 315 728 306 728C297 728 292 724 289 715C272 654 238 592 185 531C146 487 101 452 49 425C40 420 36 413 36 404C36 388 44 380 60 380C62 380 65 381 70 382C114 405 153 433 187 465L187 35C153 67 114 95 70 118C65 119 62 120 60 120C44 120 36 112 36 96C36 87 40 80 49 75C101 48 146 13 185-31C238-92 272-154 289-215C292-224 297-228 306-228C315-228 320-224 323-215C340-154 374-92 427-31C466 13 511 48 563 75M378 516L378-16C349-52 325-92 306-137C287-92 263-52 234-16L234 516C263 552 287 592 306 637C325 592 349 552 378 516Z"/></g></g></g></svg>
