<svg style="vertical-align: -0.459ex;" xmlns="http://www.w3.org/2000/svg" width="2.262ex" height="2.075ex" viewBox="0 -714 1000 917"><g stroke="currentColor" fill="currentColor" stroke-width="0" transform="scale(1,-1)"><g data-latex="\nearrow"><g data-latex="\nearrow"><path data-c="2197" d="M935 329C951 329 959 337 959 353C959 358 958 362 955 367C921 417 904 476 904 544C904 589 913 628 930 662C931 663 931 666 931 669C931 680 925 686 914 686C911 686 908 686 907 685C873 668 834 659 789 659C721 659 662 676 612 710C607 713 603 714 598 714C582 714 574 706 574 690C574 681 578 675 585 670C643 631 706 612 775 612C793 612 811 614 828 617L49-162C44-166 42-172 42-179C42-195 50-203 66-203C72-203 77-201 82-196L862 583C859 566 857 548 857 530C857 461 876 398 915 340C920 333 926 329 935 329Z"/></g></g></g></svg>
