<svg style="vertical-align: -0.459ex;" xmlns="http://www.w3.org/2000/svg" width="2.262ex" height="2.075ex" viewBox="0 -714 1000 917"><g stroke="currentColor" fill="currentColor" stroke-width="0" transform="scale(1,-1)"><g data-latex="\nwarrow"><g data-latex="\nwarrow"><path data-c="2196" d="M934-203C950-203 958-195 958-179C958-171 956-165 951-162L172 617C189 614 207 612 225 612C294 612 357 631 415 670C422 675 426 681 426 690C426 706 418 714 402 714C397 714 393 713 388 710C338 676 279 659 211 659C166 659 127 668 93 685C92 686 89 686 86 686C75 686 69 680 69 669C69 666 69 663 70 662C87 628 96 589 96 544C96 476 79 417 45 367C42 362 41 358 41 353C41 337 49 329 65 329C74 329 80 333 85 340C124 398 143 461 143 530C143 548 141 566 138 583L917-196C920-201 926-203 934-203Z"/></g></g></g></svg>
