<svg style="vertical-align: -0.484ex;" xmlns="http://www.w3.org/2000/svg" width="2.262ex" height="2.075ex" viewBox="0 -703 1000 917"><g stroke="currentColor" fill="currentColor" stroke-width="0" transform="scale(1,-1)"><g data-latex="\swarrow"><g data-latex="\swarrow"><path data-c="2199" d="M951 662C956 666 958 672 958 679C958 695 950 703 934 703C926 703 920 701 917 696L138-83C141-66 143-48 143-30C143 39 124 102 85 160C80 167 74 171 65 171C49 171 41 163 41 147C41 142 42 138 45 133C79 83 96 24 96-44C96-89 87-128 70-162C69-163 69-166 69-169C69-180 75-186 86-186C89-186 92-186 93-185C127-168 166-159 211-159C279-159 338-176 388-210C393-213 397-214 402-214C418-214 426-206 426-190C426-181 422-175 415-170C357-131 294-112 225-112C207-112 189-114 172-117Z"/></g></g></g></svg>
