<svg style="vertical-align: 0.301ex;" xmlns="http://www.w3.org/2000/svg" width="1.76ex" height="0.529ex" viewBox="0 -367 778 234"><g stroke="currentColor" fill="currentColor" stroke-width="0" transform="scale(1,-1)"><g data-latex="="><g data-latex="="><path data-c="3D" d="M698 367L80 367C64 367 56 359 56 344C56 329 64 321 80 321L698 321C714 321 722 329 722 344C722 356 711 367 698 367M698 179L80 179C64 179 56 171 56 156C56 141 64 133 80 133L698 133C714 133 722 141 722 156C722 169 711 179 698 179Z"/></g></g></g></svg>
