<svg style="vertical-align: -0.52ex;" xmlns="http://www.w3.org/2000/svg" width="1.76ex" height="2.172ex" viewBox="0 -730 778 960"><g stroke="currentColor" fill="currentColor" stroke-width="0" transform="scale(1,-1)"><g data-latex="\neq"><g data-latex="\neq"><path data-c="2260" d="M698 178L388 178L440 322L698 322C714 322 722 330 722 346C722 362 714 370 698 370L458 370L576 698C578 701 579 703 579 706C579 722 571 730 555 730C542 730 535 725 532 714L407 370L80 370C64 370 56 362 56 346C56 330 64 322 80 322L390 322L338 178L80 178C64 178 56 170 56 154C56 138 64 130 80 130L320 130L201-198C200-200 200-203 200-206C200-222 208-230 224-230C236-230 243-225 246-214L371 130L698 130C714 130 722 138 722 154C722 166 711 178 698 178Z"/></g></g></g></svg>
