<svg style="vertical-align: 0.02ex;" xmlns="http://www.w3.org/2000/svg" width="1.76ex" height="1.09ex" viewBox="0 -491 778 482"><g stroke="currentColor" fill="currentColor" stroke-width="0" transform="scale(1,-1)"><g data-latex="\times"><g data-latex="\times"><path data-c="D7" d="M630 32C630 39 628 44 623 49L422 250L623 451C628 456 630 461 630 468C630 481 620 491 607 491C600 491 595 489 590 484L389 283L188 484C183 489 178 491 171 491C158 491 148 481 148 468C148 461 150 456 155 451L356 250L155 49C150 44 148 39 148 32C148 19 158 9 171 9C178 9 183 11 188 16L389 217L590 16C595 11 600 9 607 9C620 9 630 19 630 32Z"/></g></g></g></svg>
