<svg style="vertical-align: 0.081ex;" xmlns="http://www.w3.org/2000/svg" width="1.76ex" height="0.968ex" viewBox="0 -464 778 428"><g stroke="currentColor" fill="currentColor" stroke-width="0" transform="scale(1,-1)"><g data-latex="\equiv"><g data-latex="\equiv"><path data-c="2261" d="M698 464L80 464C64 464 56 456 56 440C56 425 64 417 80 417L698 417C714 417 722 425 722 440C722 453 711 464 698 464M698 274L80 274C64 274 56 266 56 250C56 234 64 226 80 226L698 226C714 226 722 234 722 250C722 262 711 274 698 274M698 83L80 83C64 83 56 75 56 60C56 44 64 36 80 36L698 36C714 36 722 44 722 60C722 72 711 83 698 83Z"/></g></g></g></svg>
