<svg style="vertical-align: -0.566ex;" xmlns="http://www.w3.org/2000/svg" width="0.036ex" height="2.262ex" viewBox="0 -750 16 1000"><g stroke="currentColor" fill="currentColor" stroke-width="0" transform="scale(1,-1)"><g data-latex="\implies"><g data-latex="\;"/></g></g></svg><svg style="vertical-align: -0.566ex;" xmlns="http://www.w3.org/2000/svg" width="3.925ex" height="2.262ex" viewBox="0 -750 1735 1000"><g stroke="currentColor" fill="currentColor" stroke-width="0" transform="scale(1,-1)"><g data-latex="\implies"><g data-latex="\;"/><g data-latex="\Longrightarrow" transform="translate(278,0)"><path data-c="27F9" d="M1389 233C1397 237 1401 243 1401 250C1401 257 1397 263 1389 267C1327 283 1265 318 1204 371C1159 410 1124 455 1097 507C1093 516 1086 520 1076 520C1060 520 1052 512 1052 496C1052 494 1053 491 1054 486C1077 442 1105 403 1137 369L80 369C64 369 56 361 56 346C56 330 64 322 80 322L1189 322C1227 292 1268 268 1311 250C1268 232 1227 208 1189 178L80 178C64 178 56 170 56 154C56 139 64 131 80 131L1137 131C1105 97 1077 58 1054 14C1053 9 1052 6 1052 4C1052-12 1060-20 1076-20C1086-20 1093-16 1097-7C1124 45 1159 90 1204 129C1265 182 1327 217 1389 233Z"/></g><g data-latex="\;" transform="translate(1735,0)"/></g></g></svg><svg style="vertical-align: -0.566ex;" xmlns="http://www.w3.org/2000/svg" width="0.629ex" height="2.262ex" viewBox="0 -750 278 1000"><g stroke="currentColor" fill="currentColor" stroke-width="0" transform="scale(1,-1)"><g data-latex="\implies"><g data-latex="\;"/></g></g></svg>
