<svg style="vertical-align: -0.566ex;" xmlns="http://www.w3.org/2000/svg" width="0.036ex" height="2.262ex" viewBox="0 -750 16 1000"><g stroke="currentColor" fill="currentColor" stroke-width="0" transform="scale(1,-1)"><g data-latex="\iff"><g data-latex="\;"/></g></g></svg><svg style="vertical-align: -0.566ex;" xmlns="http://www.w3.org/2000/svg" width="4.1ex" height="2.262ex" viewBox="0 -750 1812 1000"><g stroke="currentColor" fill="currentColor" stroke-width="0" transform="scale(1,-1)"><g data-latex="\iff"><g data-latex="\;"/><g data-latex="\Longleftrightarrow" transform="translate(278,0)"><path data-c="27FA" d="M1465 233C1474 236 1478 241 1478 250C1478 259 1474 264 1465 267C1403 284 1342 318 1281 371C1237 410 1201 455 1174 507C1170 516 1163 520 1153 520C1137 520 1129 512 1129 496C1129 494 1130 491 1131 486C1154 442 1182 403 1214 369L320 369C352 403 380 442 403 486C404 491 405 494 405 496C405 512 397 520 381 520C371 520 364 516 360 507C333 455 297 410 253 371C192 318 131 284 69 267C60 264 56 259 56 250C56 241 60 236 69 233C131 216 192 182 253 129C297 90 333 45 360-7C364-16 371-20 381-20C397-20 405-12 405 4C405 6 404 9 403 14C380 58 352 97 320 131L1214 131C1182 97 1154 58 1131 14C1130 9 1129 6 1129 4C1129-12 1137-20 1153-20C1163-20 1170-16 1174-7C1201 45 1237 90 1281 129C1342 182 1403 216 1465 233M1266 322C1302 293 1342 269 1387 250C1342 231 1302 207 1266 178L268 178C232 207 192 231 147 250C192 269 232 293 268 322Z"/></g><g data-latex="\;" transform="translate(1812,0)"/></g></g></svg><svg style="vertical-align: -0.566ex;" xmlns="http://www.w3.org/2000/svg" width="0.629ex" height="2.262ex" viewBox="0 -750 278 1000"><g stroke="currentColor" fill="currentColor" stroke-width="0" transform="scale(1,-1)"><g data-latex="\iff"><g data-latex="\;"/></g></g></svg>
