<svg style="vertical-align: -0.269ex;" xmlns="http://www.w3.org/2000/svg" width="1.76ex" height="1.697ex" viewBox="0 -631 778 750"><g stroke="currentColor" fill="currentColor" stroke-width="0" transform="scale(1,-1)"><g data-latex="\geq"><g data-latex="\geq"><path data-c="2265" d="M684 310C694 315 699 322 699 333C699 344 694 352 684 357L110 629C107 630 103 631 99 631C83 631 75 623 75 606C75 597 80 590 89 586L623 333L89 80C80 76 75 69 75 60C75 43 83 35 99 35C103 35 107 36 110 38M678-72L100-72C84-72 76-80 76-95C76-111 84-119 100-119L678-119C694-119 702-111 702-95C702-83 691-72 678-72Z"/></g></g></g></svg>
