<svg style="vertical-align: 0.097ex;" xmlns="http://www.w3.org/2000/svg" width="1.749ex" height="0.937ex" viewBox="0 -457 773 414"><g stroke="currentColor" fill="currentColor" stroke-width="0" transform="scale(1,-1)"><g data-latex="\approx"><g data-latex="\approx"><path data-c="2248" d="M717 432L717 434C717 445 712 450 701 450C694 450 689 446 686 439C679 404 665 377 645 360C612 331 577 317 539 317C510 317 480 328 449 349C392 390 358 413 347 420C304 445 266 457 232 457C125 457 77 382 56 284L56 281C56 271 61 266 72 266C81 266 86 270 88 278C95 313 108 339 128 356C161 385 196 399 235 399C264 399 293 388 324 366C381 326 415 303 426 296C469 271 507 259 541 259C648 259 696 334 717 432M717 216L717 219C717 229 712 234 701 234C694 234 689 230 686 223C679 188 665 162 645 144C612 115 577 101 539 101C510 101 480 112 449 134C392 174 358 197 347 204C304 229 266 241 232 241C125 241 77 166 56 68L56 66C56 55 61 50 72 50C81 50 86 54 88 62C95 97 108 123 128 140C161 169 196 183 235 183C264 183 293 172 324 151C381 110 415 87 426 80C469 55 507 43 541 43C648 43 696 118 717 216Z"/></g></g></g></svg>
