<svg style="vertical-align: -0.269ex;" xmlns="http://www.w3.org/2000/svg" width="1.76ex" height="1.697ex" viewBox="0 -631 778 750"><g stroke="currentColor" fill="currentColor" stroke-width="0" transform="scale(1,-1)"><g data-latex="\leq"><g data-latex="\leq"><path data-c="2264" d="M668 38C686 29 703 44 703 60C703 69 698 76 689 80L155 333L689 586C698 590 703 597 703 606C703 623 695 631 679 631C675 631 671 630 668 629L94 357C84 352 79 344 79 333C79 322 84 315 94 310M678-72L100-72C84-72 76-80 76-95C76-111 84-119 100-119L678-119C694-119 702-111 702-95C702-83 691-72 678-72Z"/></g></g></g></svg>
