<svg style="vertical-align: -0.097ex;" xmlns="http://www.w3.org/2000/svg" width="1.76ex" height="1.326ex" viewBox="0 -543 778 586"><g stroke="currentColor" fill="currentColor" stroke-width="0" transform="scale(1,-1)"><g data-latex="\subset"><g data-latex="\subset"><path data-c="2282" d="M669 4L378 4C309 4 251 28 204 76C156 123 132 181 132 250C132 319 156 377 204 424C251 472 309 496 378 496L669 496C685 496 693 504 693 519C693 535 685 543 669 543L378 543C296 543 227 515 170 458C113 401 85 332 85 250C85 168 113 99 170 42C227-15 296-43 378-43L669-43C685-43 693-35 693-19C693-7 682 4 669 4Z"/></g></g></g></svg>
