<svg style="vertical-align: -0.287ex;" xmlns="http://www.w3.org/2000/svg" width="1.76ex" height="1.706ex" viewBox="0 -627 778 754"><g stroke="currentColor" fill="currentColor" stroke-width="0" transform="scale(1,-1)"><g data-latex="\subseteq"><g data-latex="\subseteq"><path data-c="2286" d="M669 87L378 87C309 87 252 110 204 158C156 206 132 264 132 333C132 402 156 460 204 508C252 556 309 579 378 579L669 579C685 579 693 587 693 603C693 619 685 627 669 627L378 627C296 627 227 599 170 542C113 485 85 415 85 333C85 251 113 181 170 124C227 67 296 39 378 39L669 39C685 39 693 47 693 63C693 76 682 87 669 87M669-80L130-80C115-80 107-88 107-103C107-119 115-127 130-127L669-127C685-127 693-119 693-103C693-91 682-80 669-80Z"/></g></g></g></svg>
