<svg style="vertical-align: -0.52ex;" xmlns="http://www.w3.org/2000/svg" width="1.509ex" height="2.172ex" viewBox="0 -730 667 960"><g stroke="currentColor" fill="currentColor" stroke-width="0" transform="scale(1,-1)"><g data-latex="\notin"><g data-latex="\notin"><path data-c="2209" d="M563 3L373 3C340 3 308 10 277 23L351 226L563 226C579 226 587 234 587 250C587 266 579 274 563 274L368 274L448 497L563 497C579 497 587 505 587 521C587 537 579 545 563 545L466 545L521 698C522 701 523 703 523 706C523 722 515 730 499 730C487 730 480 725 477 714L415 545L373 545C291 545 222 516 166 459C110 402 81 332 81 250C81 135 143 47 219 0L147-198C146-200 146-203 146-206C146-222 154-230 170-230C181-230 188-225 191-214L261-22C298-37 335-45 373-45L563-45C579-45 587-37 587-21C587-8 576 3 563 3M373 497L398 497L317 274L130 274C136 337 162 390 208 433C254 476 310 497 373 497M130 226L300 226L236 46C171 90 136 150 130 226Z"/></g></g></g></svg>
