<svg style="vertical-align: -0.097ex;" xmlns="http://www.w3.org/2000/svg" width="1.509ex" height="1.326ex" viewBox="0 -543 667 586"><g stroke="currentColor" fill="currentColor" stroke-width="0" transform="scale(1,-1)"><g data-latex="\in"><g data-latex="\in"><path data-c="2208" d="M563 4L373 4C310 4 254 25 208 68C162 111 136 163 130 226L563 226C579 226 587 234 587 250C587 266 579 274 563 274L130 274C136 337 162 389 208 432C254 475 310 496 373 496L563 496C579 496 587 504 587 519C587 535 579 543 563 543L373 543C292 543 223 515 166 458C109 401 81 332 81 250C81 168 109 99 166 42C223-15 292-43 373-43L563-43C579-43 587-35 587-19C587-7 576 4 563 4Z"/></g></g></g></svg>
