<svg style="vertical-align: -0.477ex;" xmlns="http://www.w3.org/2000/svg" width="1.76ex" height="1.896ex" viewBox="0 -627 778 838"><g stroke="currentColor" fill="currentColor" stroke-width="0" transform="scale(1,-1)"><g data-latex="\subsetneq"><g data-latex="\subsetneq"><path data-c="228A" d="M669 86L378 86C309 86 252 110 204 158C156 206 132 264 132 333C132 402 156 460 204 508C252 556 309 579 378 579L669 579C685 579 693 587 693 603C693 619 685 627 669 627L378 627C296 627 227 599 170 542C113 485 85 415 85 333C85 251 113 181 170 124C227 67 296 39 378 39L669 39C685 39 693 47 693 62C693 75 682 86 669 86M669-80L454-80L495-37C500-31 502-26 502-21C502-5 494 3 478 3C471 3 465 1 460-4L389-80L130-80C115-80 107-88 107-104C107-120 115-128 130-128L345-128L305-171C301-176 299-182 299-187C299-203 307-211 323-211C330-211 335-209 340-204L410-128L669-128C685-128 693-120 693-104C693-91 682-80 669-80Z"/></g></g></g></svg>
