<svg style="vertical-align: -0.045ex;" xmlns="http://www.w3.org/2000/svg" width="1.509ex" height="1.412ex" viewBox="0 -604 667 624"><g stroke="currentColor" fill="currentColor" stroke-width="0" transform="scale(1,-1)"><g data-latex="\cup"><g data-latex="\cup"><path data-c="222A" d="M334-20C403-20 465-1 518 38C577 81 607 136 607 203L607 580C607 596 599 604 583 604C568 604 560 596 560 580L560 203C560 149 535 105 485 72C440 42 390 27 334 27C278 27 228 42 183 72C133 105 108 149 108 203L108 580C108 596 100 604 85 604C69 604 61 596 61 580L61 203C61 136 91 81 150 38C203-1 265-20 334-20Z"/></g></g></g></svg>
