<svg style="vertical-align: 0.081ex;" xmlns="http://www.w3.org/2000/svg" width="1.76ex" height="1.167ex" viewBox="0 -552 778 516"><g stroke="currentColor" fill="currentColor" stroke-width="0" transform="scale(1,-1)"><g data-latex="\cong"><g data-latex="\cong"><path data-c="2245" d="M720 534C720 545 715 551 704 551C694 551 689 546 688 537C684 496 673 465 654 443C625 408 589 391 547 391C522 391 489 405 450 432L346 510C303 538 263 552 228 552C214 552 200 550 186 546C100 521 69 455 58 349C58 338 63 332 74 332C84 332 89 337 90 347C94 388 105 419 124 441C153 476 189 493 231 493C256 493 289 479 328 451L432 373C475 345 515 331 550 331C564 331 578 333 592 337C677 362 709 428 720 534M698 274L80 274C64 274 56 266 56 251C56 235 64 227 80 227L698 227C714 227 722 235 722 251C722 263 711 274 698 274M698 83L80 83C64 83 56 75 56 60C56 44 64 36 80 36L698 36C714 36 722 44 722 60C722 72 711 83 698 83Z"/></g></g></g></svg>
