<svg style="vertical-align: -0.045ex;" xmlns="http://www.w3.org/2000/svg" width="1.509ex" height="1.412ex" viewBox="0 -604 667 624"><g stroke="currentColor" fill="currentColor" stroke-width="0" transform="scale(1,-1)"><g data-latex="\cap"><g data-latex="\cap"><path data-c="2229" d="M583-20C599-20 607-12 607 4L607 381C607 448 577 503 518 546C465 585 403 604 334 604C265 604 203 585 150 546C91 503 61 448 61 381L61 4C61-12 69-20 85-20C100-20 108-12 108 4L108 381C108 435 133 479 183 512C228 542 278 557 334 557C390 557 440 542 485 512C535 479 560 435 560 381L560 4C560-12 568-20 583-20Z"/></g></g></g></svg>
