<svg style="vertical-align: -0.52ex;" xmlns="http://www.w3.org/2000/svg" width="1.76ex" height="2.172ex" viewBox="0 -730 778 960"><g stroke="currentColor" fill="currentColor" stroke-width="0" transform="scale(1,-1)"><g data-latex="\nsubseteq"><g data-latex="\nsubseteq"><path data-c="2288" d="M669-80L295-80L338 41C351 40 365 39 378 39L669 39C685 39 693 47 693 63C693 78 685 86 669 86L378 86C373 86 366 87 355 88L534 580L669 580C685 580 693 588 693 604C693 620 685 628 669 628L552 628L576 698C577 701 578 703 578 706C578 722 570 730 555 730C542 730 535 725 532 714L501 628L378 628C296 628 227 599 170 542C113 485 85 415 85 333C85 192 180 87 292 52L244-80L130-80C115-80 107-88 107-104C107-120 115-128 130-128L226-128L202-198C201-200 200-203 200-206C200-222 208-230 224-230C236-230 243-225 246-214L277-128L669-128C685-128 693-120 693-104C693-91 682-80 669-80M378 580L483 580L309 96C214 125 132 214 132 333C132 402 156 460 204 508C252 556 309 580 378 580Z"/></g></g></g></svg>
