<svg style="vertical-align: 0.271ex;" xmlns="http://www.w3.org/2000/svg" width="1.76ex" height="0.787ex" viewBox="0 -468 778 348"><g stroke="currentColor" fill="currentColor" stroke-width="0" transform="scale(1,-1)"><g data-latex="\simeq"><g data-latex="\simeq"><path data-c="2243" d="M720 450C720 461 715 467 704 467C694 467 689 462 688 453C684 412 673 381 654 360C625 325 589 308 547 308C522 308 489 322 450 349C415 375 381 401 346 426C303 454 263 468 228 468C214 468 200 466 186 462C100 437 69 373 58 267C58 256 63 250 74 250C84 250 89 255 90 264C94 305 105 336 124 357C153 392 189 409 231 409C256 409 289 395 328 368C363 342 397 316 432 291C475 263 515 249 550 249C564 249 578 251 592 255C678 280 709 344 720 450M698 167L80 167C64 167 56 159 56 143C56 128 64 120 80 120L698 120C714 120 722 128 722 143C722 156 711 167 698 167Z"/></g></g></g></svg>
