<svg style="vertical-align: -0.106ex;" xmlns="http://www.w3.org/2000/svg" width="2.262ex" height="1.36ex" viewBox="0 -554 1000 601"><g stroke="currentColor" fill="currentColor" stroke-width="0" transform="scale(1,-1)"><g data-latex="\ll"><g data-latex="\ll"><path data-c="226A" d="M885-44C894-47 901-47 908-44C924-35 924-13 908-3L475 250L908 503C916 508 920 515 920 524C920 540 903 554 884 543L421 273C412 268 408 261 408 250C408 239 412 232 421 227M556-44C565-47 572-47 579-44C595-35 595-13 579-3L147 250L579 503C587 508 591 515 591 524C591 540 574 554 555 543L93 273C84 268 79 260 79 250C79 240 84 232 93 227Z"/></g></g></g></svg>
