<svg style="vertical-align: -0.122ex;" xmlns="http://www.w3.org/2000/svg" width="2.262ex" height="1.357ex" viewBox="0 -546 1000 600"><g stroke="currentColor" fill="currentColor" stroke-width="0" transform="scale(1,-1)"><g data-latex="\gg"><g data-latex="\gg"><path data-c="226B" d="M907 227C916 232 921 240 921 250C921 260 916 268 907 273L444 544C440 545 436 546 432 546C407 546 401 515 421 503L853 250L421-3C413-8 409-15 409-24C409-40 426-54 445-43M579 227C588 232 592 239 592 250C592 261 588 268 579 273L115 544C111 545 107 546 103 546C78 546 72 515 92 503L525 250L92-3C84-8 80-15 80-24C80-40 97-54 116-43Z"/></g></g></g></svg>
