<svg style="vertical-align: -0.566ex;" xmlns="http://www.w3.org/2000/svg" width="1.131ex" height="2.262ex" viewBox="0 -750 500 1000"><g stroke="currentColor" fill="currentColor" stroke-width="0" transform="scale(1,-1)"><g data-latex="\parallel"><g data-latex="\parallel"><path data-c="2225" d="M344-250C359-250 367-242 367-226L367 726C367 742 359 750 344 750C329 750 321 742 321 726L321-226C321-242 329-250 344-250M156-250C171-250 179-242 179-226L179 726C179 742 171 750 156 750C141 750 133 742 133 726L133-226C133-242 141-250 156-250Z"/></g></g></g></svg>
