<svg style="vertical-align: 0.303ex;" xmlns="http://www.w3.org/2000/svg" width="1.749ex" height="0.525ex" viewBox="0 -366 773 232"><g stroke="currentColor" fill="currentColor" stroke-width="0" transform="scale(1,-1)"><g data-latex="\sim"><g data-latex="\sim"><path data-c="223C" d="M597 143C674 166 714 235 717 350C717 361 712 366 701 366C691 366 686 361 685 351C684 308 675 275 657 251C637 224 592 194 548 194C518 194 486 207 453 233C434 248 418 261 406 271C335 333 274 364 222 364C207 364 192 362 177 357C92 332 59 262 56 150C56 139 61 134 72 134C82 134 87 139 88 149C89 192 98 225 116 249C135 275 182 306 225 306C255 306 287 293 320 267C339 252 355 239 367 229C438 167 499 136 551 136C566 136 582 138 597 143Z"/></g></g></g></svg>
