<svg style="vertical-align: -0.025ex;" xmlns="http://www.w3.org/2000/svg" width="1.76ex" height="1.025ex" viewBox="0 -442 778 453"><g stroke="currentColor" fill="currentColor" stroke-width="0" transform="scale(1,-1)"><g data-latex="\propto"><g data-latex="\propto"><path data-c="221D" d="M462 277C435 317 407 351 380 379C340 421 291 442 232 442C177 442 132 417 99 367C70 324 56 273 56 215C56 157 70 106 98 63C131 14 175-11 230-11C338-11 412 72 453 154C480 114 507 80 534 52C575 10 624-11 682-11C695-11 709-9 722-6L722 41C707 38 698 37 695 37C659 37 626 53 596 85C577 106 555 136 530 173L488 235C504 271 528 307 559 344C595 385 639 406 691 406C701 406 711 404 722 401C722 423 720 436 717 439C710 441 699 442 684 442C577 442 502 359 462 277M385 258L426 196C410 160 386 124 355 87C319 46 275 25 223 25C178 25 143 46 118 89C97 125 86 167 86 215C86 260 97 299 118 334C143 374 177 394 219 394C256 394 289 378 318 346C337 325 360 295 385 258Z"/></g></g></g></svg>
