<svg style="vertical-align: 0.19ex;" xmlns="http://www.w3.org/2000/svg" width="1.167ex" height="0.751ex" viewBox="0 -416 516 332"><g stroke="currentColor" fill="currentColor" stroke-width="0" transform="scale(1,-1)"><g data-latex="\therefore"><g data-latex="\therefore"><path data-c="2234" d="M314 360C314 390 288 416 258 416C227 416 202 391 202 360C202 330 228 305 258 305C288 305 314 330 314 360M441 140C441 170 415 195 385 195C355 195 329 170 329 140C329 109 354 84 385 84C416 84 441 109 441 140M187 140C187 170 161 195 131 195C100 195 75 171 75 140C75 108 99 84 131 84C162 84 187 109 187 140Z"/></g></g></g></svg>
