<svg style="vertical-align: 0.19ex;" xmlns="http://www.w3.org/2000/svg" width="1.167ex" height="0.751ex" viewBox="0 -416 516 332"><g stroke="currentColor" fill="currentColor" stroke-width="0" transform="scale(1,-1)"><g data-latex="\because"><g data-latex="\because"><path data-c="2235" d="M441 360C441 390 415 416 385 416C354 416 329 391 329 360C329 330 355 305 385 305C415 305 441 330 441 360M187 360C187 390 161 416 131 416C99 416 75 392 75 360C75 329 100 305 131 305C161 305 187 330 187 360M314 140C314 170 288 195 258 195C228 195 202 170 202 140C202 109 227 84 258 84C289 84 314 109 314 140Z"/></g></g></g></svg>
