<svg style="vertical-align: -0.247ex;" xmlns="http://www.w3.org/2000/svg" width="1.76ex" height="1.885ex" viewBox="0 -724 778 833"><g stroke="currentColor" fill="currentColor" stroke-width="0" transform="scale(1,-1)"><g data-latex="\measuredangle"><g data-latex="\measuredangle"><path data-c="2221" d="M698 59L567 59C561 182 515 288 429 376L716 685C720 689 722 694 722 700C722 716 714 724 698 724C691 724 685 722 681 717L395 409C370 430 342 450 309 467C306 469 302 470 297 470C281 470 273 462 273 447C273 438 277 430 286 425C314 410 339 393 362 374L62 52C58 47 56 41 56 36C56 20 64 12 80 12L519 12C518-18 514-48 505-79L505-85C505-101 513-109 528-109C540-109 548-103 551-91C560-54 566-20 567 12L698 12C714 12 722 20 722 36C722 48 711 59 698 59M397 342C472 263 513 169 519 59L134 59Z"/></g></g></g></svg>
