<svg style="vertical-align: 0;" xmlns="http://www.w3.org/2000/svg" width="1.007ex" height="1.548ex" viewBox="0 -684 445 684"><g stroke="currentColor" fill="currentColor" stroke-width="0" transform="scale(1,-1)"><g data-latex="\models"><g data-latex="\models"><path data-c="22A7" d="M366 270L103 270L103 414L366 414C381 414 389 422 389 438C389 454 381 462 366 462L103 462L103 660C103 676 95 684 79 684C64 684 56 676 56 660L56 24C56 8 64 0 79 0C95 0 103 8 103 24L103 222L366 222C381 222 389 230 389 246C389 259 378 270 366 270Z"/></g></g></g></svg>
