<svg style="vertical-align: 0;" xmlns="http://www.w3.org/2000/svg" width="1.195ex" height="0.975ex" viewBox="0 -431 528 431"><g stroke="currentColor" fill="currentColor" stroke-width="0" transform="scale(1,-1)"><g data-latex="\text{x}"><g data-latex="\text{x}"><path data-c="78" d="M418 3C441 4 474 3 516 0L516 38C463 38 443 39 422 67L292 235C335 288 364 324 380 343C408 375 447 392 498 393L498 431C470 429 442 428 414 428C377 428 344 429 315 431L315 393C334 391 344 382 344 366C344 357 339 346 330 334L272 262L198 357C193 364 190 369 190 372C190 385 202 392 225 393L225 431L114 428C88 427 56 428 17 431L17 393C53 393 76 390 86 385C96 380 112 363 134 334L229 210C180 147 150 109 139 96C107 57 65 38 12 38L12 0C49 3 77 4 98 3L195 0L195 38C176 41 167 50 167 65C167 69 168 74 170 79C176 92 203 126 251 183L323 89C334 75 340 65 343 59C343 46 331 39 307 38L307 0Z"/></g></g></g></svg>
