<svg style="vertical-align: 0;" xmlns="http://www.w3.org/2000/svg" width="1.068ex" height="0.975ex" viewBox="0 -431 472 431"><g stroke="currentColor" fill="currentColor" stroke-width="0" transform="scale(1,-1)"><g data-latex="\mathbb{x}"><g data-latex="\mathbb{x}" data-mjx-texclass="ORD"><g data-latex="x"><path data-c="1D569" d="M406 431L311 431C292 431 279 425 271 414C266 404 241 364 194 293L150 338C115 374 88 401 71 420C63 427 56 431 51 431C35 431 27 423 27 407C27 394 34 390 45 379L70 352C113 308 140 280 153 267L168 252L35 44L27 24C27 8 40 0 66 0L161 0C187 0 188 0 199 17L277 138C335 80 378 36 406 6C410 2 415 0 420 0C436 0 444 8 444 24C444 31 438 41 425 53C387 92 355 125 330 152L303 179L436 387C441 396 444 402 444 407C444 427 430 431 406 431M308 384L378 384L163 47L93 47Z"/></g></g></g></g></svg>
