<svg style="vertical-align: -0.798ex;" xmlns="http://www.w3.org/2000/svg" width="2.8ex" height="2.8ex" viewBox="0 -884.7 1237.6 1237.5"><g stroke="currentColor" fill="currentColor" stroke-width="0" transform="scale(1,-1)"><g data-latex="\dv{x}{x}"><g data-latex="\dv{x}{x}"><g transform="translate(220,394) scale(0.707)" data-latex="\diffd x"><g data-latex="{\rm d}" data-mjx-texclass="ORD"><g data-latex="d"><path data-c="64" d="M374-11L527 0L527 38C491 38 470 40 462 46C454 52 450 67 450 90L450 694L301 683L301 645C336 645 358 642 366 636C374 630 377 616 377 593L377 390C345 427 305 445 257 445C195 445 142 423 99 378C56 333 34 279 34 216C34 155 54 102 95 57C136 12 186-11 247-11C298-11 341 8 374 47M261 415C304 415 339 396 364 358C371 347 374 336 374 323L374 121C374 108 371 97 364 86C336 41 298 19 251 19C210 19 177 39 151 80C133 110 124 155 124 215C124 324 161 415 261 415Z"/></g></g><g data-latex="x" transform="translate(556,0)"><path data-c="1D465" d="M527 373C527 419 482 442 432 442C389 442 355 419 329 373C308 419 273 442 222 442C173 442 133 419 101 374C74 335 60 306 60 287C60 278 65 273 75 273C84 273 90 278 92 287C111 345 153 413 220 413C253 413 269 392 269 351C269 330 251 252 216 118C199 51 169 18 126 18C112 18 99 21 88 26C114 36 127 54 127 80C127 106 114 119 87 119C54 119 29 91 29 58C29 12 76-11 125-11C167-11 201 12 228 58C247 12 283-11 335-11C383-11 423 12 455 57C482 96 496 125 496 144C496 153 491 158 481 158C472 158 467 153 464 144C447 87 402 18 337 18C304 18 287 38 287 79C287 92 292 120 303 165L337 300C356 375 387 413 431 413C445 413 458 410 469 405C442 396 429 378 429 351C429 325 443 312 470 312C502 312 527 341 527 373Z"/></g></g><g transform="translate(220,-345) scale(0.707)" data-latex="\diffd x"><g data-latex="{\rm d}" data-mjx-texclass="ORD"><g data-latex="d"><path data-c="64" d="M374-11L527 0L527 38C491 38 470 40 462 46C454 52 450 67 450 90L450 694L301 683L301 645C336 645 358 642 366 636C374 630 377 616 377 593L377 390C345 427 305 445 257 445C195 445 142 423 99 378C56 333 34 279 34 216C34 155 54 102 95 57C136 12 186-11 247-11C298-11 341 8 374 47M261 415C304 415 339 396 364 358C371 347 374 336 374 323L374 121C374 108 371 97 364 86C336 41 298 19 251 19C210 19 177 39 151 80C133 110 124 155 124 215C124 324 161 415 261 415Z"/></g></g><g data-latex="x" transform="translate(556,0)"><path data-c="1D465" d="M527 373C527 419 482 442 432 442C389 442 355 419 329 373C308 419 273 442 222 442C173 442 133 419 101 374C74 335 60 306 60 287C60 278 65 273 75 273C84 273 90 278 92 287C111 345 153 413 220 413C253 413 269 392 269 351C269 330 251 252 216 118C199 51 169 18 126 18C112 18 99 21 88 26C114 36 127 54 127 80C127 106 114 119 87 119C54 119 29 91 29 58C29 12 76-11 125-11C167-11 201 12 228 58C247 12 283-11 335-11C383-11 423 12 455 57C482 96 496 125 496 144C496 153 491 158 481 158C472 158 467 153 464 144C447 87 402 18 337 18C304 18 287 38 287 79C287 92 292 120 303 165L337 300C356 375 387 413 431 413C445 413 458 410 469 405C442 396 429 378 429 351C429 325 443 312 470 312C502 312 527 341 527 373Z"/></g></g><rect width="997.6" height="60" x="120" y="220"/></g></g></g></svg>
