<svg style="vertical-align: -0.819ex;" xmlns="http://www.w3.org/2000/svg" width="2.816ex" height="2.856ex" viewBox="0 -900.3 1244.7 1262.1"><g stroke="currentColor" fill="currentColor" stroke-width="0" transform="scale(1,-1)"><g data-latex="\pdv{x}{x}"><g data-latex="\pdv{x}{x}"><g transform="translate(220,394) scale(0.707)" data-latex="\partial x"><g data-latex="\partial"><path data-c="1D715" d="M256 574C256 597 241 610 212 612C243 659 288 683 347 683C439 683 484 606 484 508C484 467 476 417 461 356C444 425 401 460 334 460C257 460 190 428 130 366C70 304 40 235 40 158C40 121 53 83 79 45C110 0 158-22 225-22C315-22 390 20 449 105C505 187 566 329 566 456C566 527 548 587 512 635C473 689 418 716 349 716C282 716 232 693 198 646C171 609 157 579 157 556C157 530 171 517 199 517C229 517 256 544 256 574M439 303C439 240 420 178 381 117C338 48 287 14 228 14C162 14 124 57 124 121C124 149 131 188 145 238C159 288 173 323 188 344C228 401 277 430 334 430C407 430 439 376 439 303Z"/></g><g data-latex="x" transform="translate(566,0)"><path data-c="1D465" d="M527 373C527 419 482 442 432 442C389 442 355 419 329 373C308 419 273 442 222 442C173 442 133 419 101 374C74 335 60 306 60 287C60 278 65 273 75 273C84 273 90 278 92 287C111 345 153 413 220 413C253 413 269 392 269 351C269 330 251 252 216 118C199 51 169 18 126 18C112 18 99 21 88 26C114 36 127 54 127 80C127 106 114 119 87 119C54 119 29 91 29 58C29 12 76-11 125-11C167-11 201 12 228 58C247 12 283-11 335-11C383-11 423 12 455 57C482 96 496 125 496 144C496 153 491 158 481 158C472 158 467 153 464 144C447 87 402 18 337 18C304 18 287 38 287 79C287 92 292 120 303 165L337 300C356 375 387 413 431 413C445 413 458 410 469 405C442 396 429 378 429 351C429 325 443 312 470 312C502 312 527 341 527 373Z"/></g></g><g transform="translate(220,-346.3) scale(0.707)" data-latex="\partial x"><g data-latex="\partial"><path data-c="1D715" d="M256 574C256 597 241 610 212 612C243 659 288 683 347 683C439 683 484 606 484 508C484 467 476 417 461 356C444 425 401 460 334 460C257 460 190 428 130 366C70 304 40 235 40 158C40 121 53 83 79 45C110 0 158-22 225-22C315-22 390 20 449 105C505 187 566 329 566 456C566 527 548 587 512 635C473 689 418 716 349 716C282 716 232 693 198 646C171 609 157 579 157 556C157 530 171 517 199 517C229 517 256 544 256 574M439 303C439 240 420 178 381 117C338 48 287 14 228 14C162 14 124 57 124 121C124 149 131 188 145 238C159 288 173 323 188 344C228 401 277 430 334 430C407 430 439 376 439 303Z"/></g><g data-latex="x" transform="translate(566,0)"><path data-c="1D465" d="M527 373C527 419 482 442 432 442C389 442 355 419 329 373C308 419 273 442 222 442C173 442 133 419 101 374C74 335 60 306 60 287C60 278 65 273 75 273C84 273 90 278 92 287C111 345 153 413 220 413C253 413 269 392 269 351C269 330 251 252 216 118C199 51 169 18 126 18C112 18 99 21 88 26C114 36 127 54 127 80C127 106 114 119 87 119C54 119 29 91 29 58C29 12 76-11 125-11C167-11 201 12 228 58C247 12 283-11 335-11C383-11 423 12 455 57C482 96 496 125 496 144C496 153 491 158 481 158C472 158 467 153 464 144C447 87 402 18 337 18C304 18 287 38 287 79C287 92 292 120 303 165L337 300C356 375 387 413 431 413C445 413 458 410 469 405C442 396 429 378 429 351C429 325 443 312 470 312C502 312 527 341 527 373Z"/></g></g><rect width="1004.7" height="60" x="120" y="220"/></g></g></g></svg>
