<svg style="vertical-align: 0;" xmlns="http://www.w3.org/2000/svg" width="1.373ex" height="1.005ex" viewBox="0 -444 607 444"><g stroke="currentColor" fill="currentColor" stroke-width="0" transform="scale(1,-1)"><g data-latex="\vb{x}"><g data-latex="\vb{x}"><path data-c="1D431" d="M585 0L585 47L514 47L346 246L463 376C476 390 482 397 565 397L565 444L473 441L370 444L370 397C384 397 396 395 408 388C404 382 404 380 400 376L316 282L218 397L258 397L258 444L137 441L27 444L27 397L98 397L254 213L123 66C106 47 70 47 22 47L22 0L114 3L217 0L217 47C199 47 180 52 180 58C180 58 180 60 187 68L284 177L394 47L355 47L355 0L475 3Z"/></g></g></g></svg>
