<svg style="vertical-align: -0.566ex;" xmlns="http://www.w3.org/2000/svg" width="1.993ex" height="2.262ex" viewBox="0 -750 881 1000"><g stroke="currentColor" fill="currentColor" stroke-width="0" transform="scale(1,-1)"><g data-latex="H₂O"><g data-latex="H"><path data-c="1D43B" d="M881 668C881 678 875 683 863 683L736 680L609 683C593 683 586 674 586 659C586 652 589 647 594 646C604 645 612 644 617 644C648 643 665 641 670 640C675 639 678 636 678 631C677 628 676 622 674 613L615 375L321 375L379 602C384 623 393 636 406 641C413 643 430 644 458 644C485 644 496 644 496 668C496 678 490 683 478 683L351 680L223 683C207 683 200 674 200 659C200 652 203 647 209 646C219 645 227 644 232 644C263 643 281 641 286 640C291 639 293 636 293 631C293 629 292 623 289 613L156 82C151 60 141 47 126 42C119 40 101 39 70 39C48 39 39 37 39 15C39 5 45 0 57 0L183 3L246 2C257 2 299 0 310 0C326 0 334 8 334 24C334 34 323 39 302 39C262 39 242 43 242 52C242 52 243 55 245 68L312 336L605 336L538 68C535 53 523 43 503 40C498 39 481 39 452 39C433 39 424 31 424 15C424 5 430 0 442 0L568 3L631 2C642 2 683 0 696 0C712 0 720 8 720 24C720 34 709 39 688 39C647 39 627 43 627 52C627 52 628 55 630 68L764 602C769 623 778 636 791 641C797 643 814 644 843 644C869 644 881 644 881 668Z"/></g></g></g></svg><mjx-break size="0"> </mjx-break><svg style="vertical-align: -0.566ex;" xmlns="http://www.w3.org/2000/svg" width="3.084ex" height="2.262ex" viewBox="0 -750 1363 1000"><g stroke="currentColor" fill="currentColor" stroke-width="0" transform="scale(1,-1)"><g data-latex="H₂O"><g data-latex="₂"><text data-variant="normal" transform="scale(1,-1)" font-size="884px" font-family="serif">₂</text></g><g data-latex="O" transform="translate(600,0)"><path data-c="1D442" d="M702 263C727 320 740 377 740 435C740 513 717 577 670 628C623 679 561 705 484 705C431 705 378 692 325 666C217 613 138 529 87 415C62 359 49 303 49 246C49 167 72 103 119 53C166 3 228-22 306-22C358-22 410-9 463 16C572 69 651 152 702 263M644 474C644 341 584 208 520 129C476 74 400 12 312 12C205 12 149 105 149 218C149 253 156 300 169 357C196 475 264 579 353 633C396 659 438 672 478 672C586 672 644 586 644 474Z"/></g></g></g></svg>
