<svg style="vertical-align: -0.21ex;" xmlns="http://www.w3.org/2000/svg" width="1.769ex" height="1.548ex" viewBox="0 -591 782 684"><g stroke="currentColor" fill="currentColor" stroke-width="0" transform="scale(1,-1)"><g data-latex="\otimes"><g data-latex="\otimes"><path data-c="2297" d="M48 249C48 60 201-93 390-93C579-93 732 60 732 249C732 438 579 591 390 591C201 591 48 438 48 249M615 58L423 250L614 441C658 389 685 322 685 249C685 176 659 110 615 58M198 475C250 519 316 545 389 545C462 545 528 519 580 475L389 284M581 24C529-20 462-47 389-47C316-47 249-20 197 24L389 216M164 441L355 250L163 58C119 110 93 176 93 249C93 322 120 389 164 441Z"/></g></g></g></svg>
