<svg style="vertical-align: 0.251ex;" xmlns="http://www.w3.org/2000/svg" width="1.416ex" height="1.163ex" viewBox="0 -625 626 514"><g stroke="currentColor" fill="currentColor" stroke-width="0" transform="scale(1,-1)"><g data-latex="\triangleleft"><g data-latex="\triangleleft"><path data-c="25C3" d="M521 111C532 111 537 116 537 127L537 609C537 620 532 625 521 625C518 625 515 624 513 622L97 381C92 378 89 374 89 368C89 362 92 358 97 355L513 114C515 112 518 111 521 111M490 542L490 194C490 191 488 190 485 190L483 190L182 365C180 366 179 367 179 368C179 369 180 370 182 371L483 546L485 546C488 546 490 545 490 542Z"/></g></g></g></svg>
