<svg style="vertical-align: -2.619ex;" xmlns="http://www.w3.org/2000/svg" width="3.267ex" height="6.155ex" viewBox="0 -1562.5 1444 2720.3"><g stroke="currentColor" fill="currentColor" stroke-width="0" transform="scale(1,-1)"><g data-latex="\sum_{x}^{n}"><g data-latex="\sum_{x}^{n}"><g data-latex="\sum"><path data-c="2211" d="M1265-450L1389-124L1355-124C1336-174 1304-216 1258-250C1145-334 1000-356 791-356L200-356L700 232C707 239 710 246 710 251L244 894L781 894C970 894 1127 870 1230 804C1290 766 1332 719 1356 663L1389 663L1265 950L88 950C70 950 60 947 57 941C56 938 56 926 56 905L581 187L68-415C61-423 57-430 57-435C57-445 67-450 88-450Z"/></g><g transform="translate(519.8,-1050) scale(0.707)" data-latex="{x}" data-mjx-texclass="ORD"><g data-latex="x"><path data-c="1D465" d="M527 373C527 419 482 442 432 442C389 442 355 419 329 373C308 419 273 442 222 442C173 442 133 419 101 374C74 335 60 306 60 287C60 278 65 273 75 273C84 273 90 278 92 287C111 345 153 413 220 413C253 413 269 392 269 351C269 330 251 252 216 118C199 51 169 18 126 18C112 18 99 21 88 26C114 36 127 54 127 80C127 106 114 119 87 119C54 119 29 91 29 58C29 12 76-11 125-11C167-11 201 12 228 58C247 12 283-11 335-11C383-11 423 12 455 57C482 96 496 125 496 144C496 153 491 158 481 158C472 158 467 153 464 144C447 87 402 18 337 18C304 18 287 38 287 79C287 92 292 120 303 165L337 300C356 375 387 413 431 413C445 413 458 410 469 405C442 396 429 378 429 351C429 325 443 312 470 312C502 312 527 341 527 373Z"/></g></g><g transform="translate(509.9,1150) scale(0.707)" data-latex="{n}" data-mjx-texclass="ORD"><g data-latex="n"><path data-c="1D45B" d="M537 137C514 58 481 18 440 18C427 18 420 28 420 47C420 61 426 84 438 115C478 224 498 296 498 333C498 403 451 442 381 442C322 442 271 416 230 363C222 407 187 442 136 442C80 442 58 390 44 345C34 313 29 294 29 287C29 278 34 273 45 273C50 273 53 274 56 276C61 285 64 292 65 299C83 375 106 413 133 413C151 413 160 399 160 371C160 358 155 331 144 290L87 63C84 50 78 24 78 19C78-1 89-11 111-11C130-11 144-1 151 19C153 24 159 49 170 92L191 181L221 295C232 318 249 341 270 365C299 397 335 413 378 413C411 413 427 391 427 348C427 310 406 234 363 120C356 102 353 87 353 74C353 25 390-11 438-11C482-11 517 14 542 64C561 104 571 131 571 144C571 153 566 158 555 158C552 158 537 149 537 137Z"/></g></g></g></g></g></svg>
