<svg style="vertical-align: -1.948ex;" xmlns="http://www.w3.org/2000/svg" width="2.26ex" height="5.027ex" viewBox="0 -1361 999 2222"><g stroke="currentColor" fill="currentColor" stroke-width="0" transform="scale(1,-1)"><g data-latex="\int"><g data-latex="\int"><path data-c="222B" d="M831 1361C784 1361 742 1318 703 1232C684 1191 664 1129 642 1046C545 688 472 339 395-117C360-328 331-481 308-574C267-745 220-831 168-831C149-831 132-826 117-815C146-810 160-793 160-763C160-734 138-711 109-711C74-711 56-729 56-764C56-822 113-861 170-861C243-861 303-803 350-688C375-627 409-509 451-336C524-39 589 279 646 617C686 854 722 1034 753 1157C782 1273 809 1331 833 1331C853 1331 870 1326 883 1315C854 1310 839 1293 839 1263C839 1234 861 1211 890 1211C925 1211 943 1229 943 1264C943 1319 889 1361 831 1361Z"/></g></g></g></svg>
