<svg style="vertical-align: -1.948ex;" xmlns="http://www.w3.org/2000/svg" width="3.21ex" height="5.027ex" viewBox="0 -1361 1419 2222"><g stroke="currentColor" fill="currentColor" stroke-width="0" transform="scale(1,-1)"><g data-latex="\iint"><g data-latex="\iint"><path data-c="222C" d="M1251 1361C1204 1361 1162 1318 1123 1233C1104 1191 1084 1129 1061 1046C964 688 890 339 813-117C778-328 749-481 726-574C685-745 638-831 586-831C566-831 549-826 535-815C564-810 578-793 578-763C578-733 556-711 526-711C491-711 473-729 473-764C473-820 530-861 588-861C661-861 721-803 768-688C793-627 827-509 870-336C943-39 1008 279 1065 617C1105 854 1141 1034 1172 1157C1202 1273 1229 1331 1253 1331C1273 1331 1290 1326 1303 1315C1274 1310 1259 1293 1259 1263C1259 1234 1281 1211 1310 1211C1345 1211 1363 1229 1363 1264C1363 1319 1309 1361 1251 1361M833 1361C786 1361 744 1318 705 1233C668 1150 630 1000 601 882C528 597 460 264 396-117C360-328 331-481 309-574C268-745 221-831 168-831C149-831 132-826 117-815C146-810 160-793 160-763C160-734 138-711 109-711C74-711 56-729 56-764C56-820 112-861 170-861C243-861 304-803 351-688C376-627 410-509 452-336C525-39 590 279 647 617C687 854 723 1034 755 1157C784 1273 811 1331 835 1331C855 1331 872 1326 885 1315C856 1310 841 1293 841 1263C841 1233 863 1211 893 1211C928 1211 946 1229 946 1264C946 1320 891 1361 833 1361Z"/></g></g></g></svg>
