<svg style="vertical-align: -1.948ex;" xmlns="http://www.w3.org/2000/svg" width="4.161ex" height="5.027ex" viewBox="0 -1361 1839 2222"><g stroke="currentColor" fill="currentColor" stroke-width="0" transform="scale(1,-1)"><g data-latex="\iiint"><g data-latex="\iiint"><path data-c="222D" d="M1671 1361C1624 1361 1581 1318 1542 1233C1505 1150 1467 1000 1438 882C1365 597 1297 264 1233-117C1197-328 1168-481 1145-574C1104-745 1057-831 1005-831C985-831 968-826 954-815C983-810 997-793 997-763C997-733 975-711 945-711C910-711 892-729 892-764C892-820 949-861 1007-861C1080-861 1140-803 1187-688C1212-627 1246-509 1289-336C1362-39 1427 279 1484 617C1524 854 1560 1034 1592 1157C1621 1273 1648 1331 1672 1331C1693 1331 1710 1326 1723 1315C1693 1310 1678 1293 1678 1263C1678 1234 1701 1211 1730 1211C1765 1211 1783 1229 1783 1264C1783 1319 1729 1361 1671 1361M1252 1361C1205 1361 1163 1318 1124 1233C1105 1191 1085 1129 1062 1046C965 687 892 339 815-117C779-328 750-481 727-574C686-745 639-831 587-831C567-831 550-826 536-815C565-810 579-793 579-763C579-734 556-711 527-711C492-711 474-729 474-764C474-820 530-861 589-861C662-861 722-803 769-688C794-627 828-509 871-336C944-39 1009 279 1066 617C1106 854 1142 1034 1174 1157C1203 1273 1230 1331 1254 1331C1275 1331 1292 1326 1305 1315C1275 1310 1260 1293 1260 1263C1260 1234 1283 1211 1312 1211C1347 1211 1365 1229 1365 1264C1365 1320 1310 1361 1252 1361M834 1361C787 1361 745 1318 706 1233C669 1151 631 1001 602 882C529 597 461 264 396-117C361-328 332-481 309-574C268-745 221-831 168-831C149-831 132-826 118-815C147-810 161-793 161-763C161-734 138-711 109-711C74-711 56-729 56-764C56-820 112-861 170-861C243-861 304-803 351-688C376-627 410-509 453-336C526-39 591 279 648 617C688 854 724 1034 756 1157C785 1273 812 1331 836 1331C856 1331 873 1326 887 1315C857 1310 842 1293 842 1263C842 1233 864 1211 894 1211C929 1211 947 1229 947 1264C947 1320 892 1361 834 1361Z"/></g></g></g></svg>
