<svg style="vertical-align: -1.948ex;" xmlns="http://www.w3.org/2000/svg" width="2.26ex" height="5.027ex" viewBox="0 -1361 999 2222"><g stroke="currentColor" fill="currentColor" stroke-width="0" transform="scale(1,-1)"><g data-latex="\oint"><g data-latex="\oint"><path data-c="222E" d="M831 1361C784 1361 742 1318 704 1232C686 1193 665 1131 642 1046C609 925 570 762 525 556L521 556C436 556 365 526 306 466C247 406 217 335 217 250C217 111 304 7 409-35L395-117C356-344 327-496 308-574C267-745 220-831 168-831C149-831 132-826 117-815C146-810 160-793 160-763C160-734 138-711 109-711C74-711 56-729 56-764C56-822 113-861 170-861C243-861 303-803 350-688C380-615 414-497 451-336L516-56L521-56C605-56 677-26 736 34C795 94 825 165 825 250C825 388 735 494 631 535L646 617C679 807 703 937 718 1008C764 1223 802 1331 833 1331C853 1331 870 1326 883 1315C854 1310 839 1293 839 1263C839 1234 861 1211 890 1211C925 1211 943 1229 943 1264C943 1319 889 1361 831 1361M622 481C703 445 772 361 772 250C772 181 748 123 701 74C654 25 596 0 528-2M270 250C270 318 293 377 340 426C387 475 445 500 513 502L419 19C339 56 270 139 270 250Z"/></g></g></g></svg>
