<svg style="vertical-align: -0.439ex;" xmlns="http://www.w3.org/2000/svg" width="6.928ex" height="2.009ex" viewBox="0 -694 3062 888"><g stroke="currentColor" fill="currentColor" stroke-width="0" transform="scale(1,-1)"><g data-latex="\limsup"><g data-latex="\limsup"><path data-c="6C" d="M144 3L255 0L255 39C219 39 197 40 190 44C183 48 180 60 180 79L180 694L33 683L33 645C68 645 90 642 97 636C104 630 108 616 108 593L108 79C108 60 105 48 98 44C91 40 69 39 33 39L33 0Z"/><path data-c="69" d="M194 601C194 631 169 657 139 657C109 657 83 631 83 601C83 571 108 544 138 544C169 544 194 570 194 601M143 3L247 0L247 39C214 39 194 41 188 45C182 49 180 60 180 78L180 445L37 433L37 395C70 395 91 392 98 387C105 382 108 368 108 345L108 79C108 60 105 48 98 44C91 40 69 39 33 39L33 0Z" transform="translate(278,0)"/><path data-c="6D" d="M315 413C361 413 384 378 384 307L384 79C384 60 381 48 374 44C367 40 344 38 307 38L307 0L423 3L538 0L538 38C501 38 479 40 472 44C465 48 461 60 461 79L461 259C461 339 513 413 590 413C637 413 660 378 660 307L660 79C660 60 656 48 649 44C642 40 619 38 582 38L582 0L698 3L813 0L813 38C781 38 760 39 750 42C740 45 736 52 736 64L736 251C736 298 734 331 731 350C721 411 676 442 597 442C534 442 487 413 455 354C441 413 397 442 322 442C259 442 211 412 179 352L179 442L32 431L32 393C68 393 90 390 98 384C106 378 109 365 109 342L109 79C109 60 105 48 98 44C91 40 69 38 32 38L32 0L148 3L263 0L263 38C226 38 203 40 196 44C189 48 185 60 185 79L185 259C185 340 238 413 315 413Z" transform="translate(556,0)"/><path data-c="2006" d="" transform="translate(1389,0)"/><path data-c="73" d="M360 130C360 206 308 254 205 274C158 283 128 294 112 305C96 316 88 332 88 351C88 398 123 421 193 421C261 421 298 383 303 306C304 298 309 294 319 294C330 294 336 303 336 321L336 420C336 439 331 448 321 448C310 448 295 430 285 422C260 439 229 448 193 448C104 448 33 408 33 323C33 289 47 260 76 237C111 208 144 202 207 191C272 178 305 149 305 104C305 47 270 18 199 18C130 18 86 64 67 155C64 168 59 175 50 175C39 175 33 165 33 146L33 17C33-2 38-11 48-11C51-11 56-8 64-1C82 15 74 12 92 30C121 3 157-11 199-11C294-11 360 38 360 130Z" transform="translate(1556,0)"/><path data-c="75" d="M267 18C198 18 185 47 185 112L185 442L32 431L32 393C71 393 94 389 100 382C106 375 109 350 109 306L109 159C109 120 112 90 119 67C134 15 189-11 262-11C316-11 357 14 385 65L385-11L535 0L535 38C499 38 478 40 470 46C462 52 458 66 458 89L458 442L306 431L306 393C341 393 362 390 370 384C378 378 382 365 382 342L382 167C382 88 340 18 267 18Z" transform="translate(1950,0)"/><path data-c="70" d="M298-13C360-13 413 9 456 54C499 99 521 152 521 215C521 276 501 328 462 372C421 419 371 442 311 442C260 442 216 422 178 383L178 442L28 431L28 393C65 393 87 391 94 386C101 381 105 368 105 347L105-115C105-134 101-146 94-150C87-154 65-155 28-155L28-194L142-191L257-194L257-155C220-155 199-154 192-150C185-146 181-134 181-115L181 44C203 13 246-13 298-13M304 409C345 409 377 386 402 340C421 301 431 260 431 215C431 168 420 125 398 86C372 39 337 16 294 16C252 16 219 36 194 75C185 88 181 101 181 114L181 333C210 384 251 409 304 409Z" transform="translate(2506,0)"/></g></g></g></svg>
