<svg style="vertical-align: -0.05ex;" xmlns="http://www.w3.org/2000/svg" width="1.281ex" height="1.67ex" viewBox="0 -716 566 738"><g stroke="currentColor" fill="currentColor" stroke-width="0" transform="scale(1,-1)"><g data-latex="\partial"><g data-latex="\partial"><path data-c="1D715" d="M256 574C256 597 241 610 212 612C243 659 288 683 347 683C439 683 484 606 484 508C484 467 476 417 461 356C444 425 401 460 334 460C257 460 190 428 130 366C70 304 40 235 40 158C40 121 53 83 79 45C110 0 158-22 225-22C315-22 390 20 449 105C505 187 566 329 566 456C566 527 548 587 512 635C473 689 418 716 349 716C282 716 232 693 198 646C171 609 157 579 157 556C157 530 171 517 199 517C229 517 256 544 256 574M439 303C439 240 420 178 381 117C338 48 287 14 228 14C162 14 124 57 124 121C124 149 131 188 145 238C159 288 173 323 188 344C228 401 277 430 334 430C407 430 439 376 439 303Z"/></g></g></g></svg>
