<svg style="vertical-align: -0.383ex;" xmlns="http://www.w3.org/2000/svg" width="3.224ex" height="2.398ex" viewBox="0 -890.8 1425 1060"><g stroke="currentColor" fill="currentColor" stroke-width="0" transform="scale(1,-1)"><g data-latex="\sqrt[3]{x}"><g data-latex="\sqrt[3]{x}"><g transform="translate(0,790.8)"><path data-c="221A" d="M847-2C851 7 853 13 853 16C853 32 845 40 829 40C820 40 813 36 809 27C666-259 595-403 595-405L595-406C595-413 527-558 390-843L217-461C212-450 207-445 201-445C198-445 192-448 184-454L86-528C77-535 73-540 73-545C73-555 78-560 87-560C90-560 95-557 103-551L151-516L345-943C350-954 357-960 367-960C379-960 387-955 392-946Z"/></g><g transform="translate(261.8,391.8) scale(0.5)" data-latex="3"><path data-c="33" d="M303 353C369 378 431 441 431 526C431 569 410 604 369 631C333 654 292 666 246 666C201 666 162 654 127 631C88 605 68 571 68 528C68 495 90 472 122 472C154 472 176 495 176 527C176 560 157 578 119 580C145 615 186 633 242 633C302 633 332 598 332 527C332 485 324 450 309 421C282 373 245 364 183 364C171 362 165 357 165 348C165 333 172 333 192 333L235 333C310 333 348 280 348 173C348 88 317 14 241 14C176 14 128 36 99 80C134 79 160 105 160 139C160 173 135 198 101 198C62 198 42 178 42 137C42 88 64 49 108 18C147-9 193-22 244-22C301-22 350-3 393 34C436 71 457 117 457 173C457 267 383 332 303 353Z"/></g><g><g data-latex="x" transform="translate(853,0)"><path data-c="1D465" d="M527 373C527 419 482 442 432 442C389 442 355 419 329 373C308 419 273 442 222 442C173 442 133 419 101 374C74 335 60 306 60 287C60 278 65 273 75 273C84 273 90 278 92 287C111 345 153 413 220 413C253 413 269 392 269 351C269 330 251 252 216 118C199 51 169 18 126 18C112 18 99 21 88 26C114 36 127 54 127 80C127 106 114 119 87 119C54 119 29 91 29 58C29 12 76-11 125-11C167-11 201 12 228 58C247 12 283-11 335-11C383-11 423 12 455 57C482 96 496 125 496 144C496 153 491 158 481 158C472 158 467 153 464 144C447 87 402 18 337 18C304 18 287 38 287 79C287 92 292 120 303 165L337 300C356 375 387 413 431 413C445 413 458 410 469 405C442 396 429 378 429 351C429 325 443 312 470 312C502 312 527 341 527 373Z"/></g></g><rect width="572" height="60" x="853" y="770.8"/></g></g></g></svg>
