<svg style="vertical-align: -2.016ex;" xmlns="http://www.w3.org/2000/svg" width="4.294ex" height="4.948ex" viewBox="0 -1296 1898 2187"><g stroke="currentColor" fill="currentColor" stroke-width="0" transform="scale(1,-1)"><g data-latex="\binom{x}{y}"><g data-latex="\binom{x}{y}"><g data-latex="\biggl (" data-mjx-texclass="OPEN"><g><path data-c="28" d="M588-796C601-796 608-789 608-776C608-770 606-765 601-760C500-684 420-552 361-365C310-206 285-51 285 101L285 399C285 551 310 706 361 865C420 1052 500 1184 601 1260C606 1265 608 1270 608 1276C608 1289 601 1296 588 1296C583 1296 579 1295 576 1292C464 1207 372 1071 300 886C234 717 201 554 201 399L201 101C201-54 234-217 300-386C372-571 464-707 576-792C579-795 583-796 588-796Z"/></g></g><g transform="translate(663,0)"><g data-latex="x" transform="translate(0,676)"><path data-c="1D465" d="M527 373C527 419 482 442 432 442C389 442 355 419 329 373C308 419 273 442 222 442C173 442 133 419 101 374C74 335 60 306 60 287C60 278 65 273 75 273C84 273 90 278 92 287C111 345 153 413 220 413C253 413 269 392 269 351C269 330 251 252 216 118C199 51 169 18 126 18C112 18 99 21 88 26C114 36 127 54 127 80C127 106 114 119 87 119C54 119 29 91 29 58C29 12 76-11 125-11C167-11 201 12 228 58C247 12 283-11 335-11C383-11 423 12 455 57C482 96 496 125 496 144C496 153 491 158 481 158C472 158 467 153 464 144C447 87 402 18 337 18C304 18 287 38 287 79C287 92 292 120 303 165L337 300C356 375 387 413 431 413C445 413 458 410 469 405C442 396 429 378 429 351C429 325 443 312 470 312C502 312 527 341 527 373Z"/></g><g data-latex="y" transform="translate(41,-686)"><path data-c="1D466" d="M163 442C118 442 83 417 58 367C39 328 29 301 29 286C29 277 34 272 45 272C59 272 60 278 64 293C87 372 119 412 160 412C173 412 180 403 180 385C180 369 175 346 164 317C126 214 107 145 107 108C107 32 154-13 231-13C264-13 295-1 323 23C288-109 233-175 158-175C124-175 101-164 89-142C129-140 149-121 149-85C149-60 136-47 109-47C72-47 50-78 50-115C50-170 100-205 158-205C273-205 367-99 392-1L486 377C489 388 490 396 490 401C490 421 479 431 458 431C442 431 429 423 420 408C414 387 409 369 406 354L342 97C332 61 279 16 234 16C196 16 177 41 177 92C177 134 194 198 227 284C240 319 247 343 247 357C247 406 212 442 163 442Z"/></g></g><g data-latex="\biggr )" data-mjx-texclass="CLOSE" transform="translate(1235,0)"><g><path data-c="29" d="M86-792C198-707 290-571 363-386C429-217 462-54 462 101L462 399C462 554 429 717 363 886C290 1071 198 1207 86 1292C83 1295 80 1296 75 1296C62 1296 55 1289 55 1276C55 1269 57 1264 62 1260C163 1183 243 1052 302 865C353 707 378 552 378 399L378 101C378-51 353-206 302-365C243-552 163-684 62-760C57-764 55-769 55-776C55-789 62-796 75-796C80-796 83-795 86-792Z"/></g></g></g></g></g></svg>
